<?xml version="1.0" encoding="UTF-8" standalone="no"?>
<svg xmlns:ffdec="https://www.free-decompiler.com/flash" xmlns:xlink="http://www.w3.org/1999/xlink" ffdec:objectType="frame" height="35.25px" width="159.5px" xmlns="http://www.w3.org/2000/svg">
  <g transform="matrix(1.0, 0.0, 0.0, 1.0, 0.0, 0.0)">
    <use ffdec:characterId="521" height="35.25" transform="matrix(1.5463, 0.0, 0.0, 1.0, 0.0, 0.0)" width="103.15" xlink:href="#shape0"/>
    <clipPath id="clip1">
      <path d="M 0,0 L 6.0,0 L 6.0,6.0 L 0,6.0 Z"/>
    </clipPath>
    <clipPath id="clip2">
      <path d="M 0,17.0 L 6.0,17.0 L 6.0,22.0 L 0,22.0 Z"/>
    </clipPath>
    <clipPath id="clip3">
      <path d="M 139.0,0 L 145.0,0 L 145.0,6.0 L 139.0,6.0 Z"/>
    </clipPath>
    <clipPath id="clip4">
      <path d="M 139.0,17.0 L 145.0,17.0 L 145.0,22.0 L 139.0,22.0 Z"/>
    </clipPath>
    <clipPath id="clip5">
      <path d="M 6.0,0 L 139.0,0 L 139.0,6.0 L 6.0,6.0 Z"/>
    </clipPath>
    <clipPath id="clip6">
      <path d="M 0,6.0 L 6.0,6.0 L 6.0,17.0 L 0,17.0 Z"/>
    </clipPath>
    <clipPath id="clip7">
      <path d="M 6.0,17.0 L 139.0,17.0 L 139.0,22.0 L 6.0,22.0 Z"/>
    </clipPath>
    <clipPath id="clip8">
      <path d="M 139.0,6.0 L 145.0,6.0 L 145.0,17.0 L 139.0,17.0 Z"/>
    </clipPath>
    <clipPath id="clip9">
      <path d="M 6.0,6.0 L 139.0,6.0 L 139.0,17.0 L 6.0,17.0 Z"/>
    </clipPath>
    <g ffdec:characterId="523">
      <use clip-path="url(#clip1)" transform="matrix(1.0, 0.0, 0.0, 1.0, 2.05, 2.4)" xlink:href="#sprite0"/>
      <use clip-path="url(#clip2)" transform="matrix(1.0, 0.0, 0.0, 1.0, 2.05, 10.282)" xlink:href="#sprite0"/>
      <use clip-path="url(#clip3)" transform="matrix(1.0, 0.0, 0.0, 1.0, 13.2165, 2.4)" xlink:href="#sprite0"/>
      <use clip-path="url(#clip4)" transform="matrix(1.0, 0.0, 0.0, 1.0, 13.2165, 10.282)" xlink:href="#sprite0"/>
      <use clip-path="url(#clip5)" transform="matrix(1.084, 0.0, 0.0, 1.0, 1.5462, 2.4)" xlink:href="#sprite0"/>
      <use clip-path="url(#clip6)" transform="matrix(1.0, 0.0, 0.0, 1.7069, 2.05, -1.5233)" xlink:href="#sprite0"/>
      <use clip-path="url(#clip7)" transform="matrix(1.084, 0.0, 0.0, 1.0, 1.5462, 10.282)" xlink:href="#sprite0"/>
      <use clip-path="url(#clip8)" transform="matrix(1.0, 0.0, 0.0, 1.7069, 13.2165, -1.5233)" xlink:href="#sprite0"/>
      <use clip-path="url(#clip9)" transform="matrix(1.084, 0.0, 0.0, 1.7069, 1.5462, -1.5233)" xlink:href="#sprite0"/>
    </g>
  </g>
  <defs>
    <g id="shape0" transform="matrix(1.0, 0.0, 0.0, 1.0, 0.0, 0.0)">
      <path d="M1.95 0.0 L101.2 0.0 Q103.15 0.0 103.15 3.15 L103.15 32.15 Q103.15 35.25 101.2 35.25 L1.95 35.25 Q0.0 35.25 0.0 32.15 L0.0 3.15 Q0.0 0.0 1.95 0.0" fill="#000000" fill-opacity="0.15294118" fill-rule="evenodd" stroke="none"/>
    </g>
    <g id="sprite0" transform="matrix(1.0, 0.0, 0.0, 1.0, 0.0, 0.0)">
      <use ffdec:characterId="522" height="22.25" transform="matrix(1.0, 0.0, 0.0, 1.0, 0.0, 0.0)" width="145.2" xlink:href="#shape1"/>
    </g>
    <g id="shape1" transform="matrix(1.0, 0.0, 0.0, 1.0, 0.0, 0.0)">
      <path d="M0.4 17.85 L0.4 16.75 0.4 5.5 0.4 4.3 Q0.4 0.4 4.4 0.4 L5.95 0.4 139.05 0.4 140.75 0.4 Q144.75 0.4 144.75 4.3 L144.75 5.5 144.75 16.75 144.75 17.85 Q144.75 21.75 140.75 21.75 L139.05 21.75 5.95 21.75 4.4 21.75 Q0.4 21.75 0.4 17.85" fill="url(#gradient0)" fill-rule="evenodd" stroke="none"/>
      <path d="M4.1 0.0 L5.95 0.0 139.05 0.0 141.1 0.0 Q142.5 0.0 143.5 0.65 144.3 1.2 144.75 2.1 L145.15 3.5 145.2 3.9 145.2 5.5 145.2 16.75 145.2 18.45 145.15 18.7 145.05 19.5 144.55 20.55 Q144.05 21.35 143.15 21.75 L141.75 22.25 139.05 22.25 5.95 22.25 4.1 22.25 Q2.7 22.25 1.75 21.65 1.0 21.1 0.5 20.2 L0.05 18.85 0.0 18.2 0.0 16.75 0.0 5.5 0.0 3.9 0.05 3.6 0.15 2.8 0.65 1.75 Q1.1 1.0 2.1 0.5 L3.5 0.1 4.1 0.0 M4.05 0.85 L3.8 0.85 3.05 1.05 Q1.9 1.35 1.3 2.25 1.05 2.6 0.95 3.0 L0.8 3.65 0.8 5.5 0.8 16.75 0.8 18.2 0.85 18.45 0.85 18.55 0.9 18.8 1.0 19.2 Q1.35 20.4 2.2 20.95 3.0 21.45 4.1 21.45 L5.95 21.45 139.05 21.45 141.4 21.45 141.7 21.35 142.15 21.3 Q143.3 20.95 143.85 20.1 L144.25 19.3 144.4 18.65 144.4 16.75 144.4 5.5 144.4 3.85 144.3 3.5 144.2 3.05 Q143.85 1.95 143.0 1.35 142.35 0.85 141.1 0.8 L139.05 0.8 5.95 0.8 4.1 0.8 4.05 0.85" fill="#563718" fill-rule="evenodd" stroke="none"/>
    </g>
    <linearGradient gradientTransform="matrix(0.0, 0.0139, -0.0134, 0.0, 72.6, 11.15)" gradientUnits="userSpaceOnUse" id="gradient0" spreadMethod="pad" x1="-819.2" x2="819.2">
      <stop offset="0.0" stop-color="#ffffff"/>
      <stop offset="0.4823529411764706" stop-color="#ffead5"/>
      <stop offset="1.0" stop-color="#ffcc99"/>
    </linearGradient>
  </defs>
</svg>
