<?xml version="1.0" encoding="UTF-8" standalone="no"?>
<svg xmlns:ffdec="https://www.free-decompiler.com/flash" xmlns:xlink="http://www.w3.org/1999/xlink" ffdec:objectType="frame" height="291.95px" width="396.95px" xmlns="http://www.w3.org/2000/svg">
  <g transform="matrix(1.0, 0.0, 0.0, 1.0, 0.0, 0.0)">
    <use ffdec:characterId="1" height="291.95" transform="matrix(1.0, 0.0, 0.0, 1.0, 0.0, 0.0)" width="396.95" xlink:href="#shape0"/>
  </g>
  <defs>
    <g id="shape0" transform="matrix(1.0, 0.0, 0.0, 1.0, 0.0, 0.0)">
      <path d="M342.35 118.55 L342.4 119.6 Q342.55 132.9 337.0 151.25 334.1 160.75 326.45 181.55 337.3 185.2 350.6 190.25 352.25 190.9 352.55 192.5 352.95 194.2 351.8 195.35 348.1 199.45 344.85 204.3 367.7 211.05 394.9 221.0 396.45 221.55 396.85 223.2 397.25 224.8 396.15 226.05 L373.25 252.2 376.6 288.4 Q376.75 290.15 375.45 291.15 374.5 291.85 373.5 291.85 L372.45 291.65 Q341.25 280.95 315.85 275.05 313.75 282.95 312.65 288.0 312.4 289.3 311.2 290.05 310.0 290.75 308.65 290.35 269.4 278.3 246.25 274.75 229.0 272.1 201.75 272.1 L198.75 272.1 Q169.55 272.2 153.3 274.6 130.4 278.0 88.05 290.5 L87.2 290.6 Q86.3 290.6 85.55 290.15 84.35 289.4 84.1 288.05 L81.5 276.65 81.15 275.25 Q55.65 281.1 24.3 291.8 L23.3 291.95 Q22.15 291.95 21.3 291.25 19.9 290.1 20.15 288.4 L24.75 251.1 0.9 226.1 Q-0.3 224.9 0.1 223.25 0.5 221.55 2.1 221.0 29.25 211.05 52.95 204.1 49.1 198.8 45.4 195.55 44.05 194.45 44.4 192.6 44.75 190.8 46.4 190.25 60.05 185.25 72.2 181.2 71.3 179.15 70.95 177.9 66.3 172.25 62.9 153.1 60.2 137.8 60.05 129.3 59.85 119.0 61.9 111.0 63.9 102.6 68.25 98.1 L68.2 97.4 Q68.2 94.65 68.75 92.1 69.45 88.7 71.95 82.3 75.9 72.5 81.8 63.3 88.55 52.6 95.25 46.5 100.5 41.85 105.45 39.9 106.15 38.5 108.5 36.6 110.85 34.7 115.95 31.35 128.35 23.2 135.05 17.65 137.8 15.5 141.7 14.0 147.25 11.75 155.65 9.65 167.25 6.9 173.65 6.75 L176.4 6.8 181.75 4.8 Q195.85 0.3 209.55 0.0 222.8 -0.3 235.6 5.3 236.75 5.75 238.75 9.7 241.5 14.9 240.1 19.7 239.45 21.9 236.3 25.95 L229.6 34.75 Q221.15 47.0 210.4 89.2 206.15 105.9 204.0 118.35 201.75 131.2 203.0 131.95 205.95 133.75 238.25 115.35 256.5 104.95 295.2 81.9 297.6 80.45 301.75 74.9 305.85 69.4 307.5 68.45 311.95 65.85 316.85 67.5 320.2 68.65 321.05 69.9 328.9 81.4 332.9 89.0 342.05 105.95 342.35 118.55 M313.8 177.75 L318.0 179.1 318.05 178.75 318.1 178.75 318.15 172.15 Q318.15 171.3 318.3 170.65 318.65 169.55 319.65 169.3 L319.9 169.3 319.9 169.35 Q321.5 170.95 321.8 174.35 L321.95 177.2 322.05 176.75 322.05 176.85 322.5 174.85 324.75 166.45 325.0 165.65 330.0 150.25 330.3 149.35 331.8 144.3 Q334.2 135.85 335.2 129.0 L335.75 124.3 335.65 124.45 335.65 124.4 335.75 124.3 335.75 124.25 335.75 124.1 335.85 123.75 335.9 118.7 Q335.7 108.55 326.3 90.55 324.8 87.95 321.7 78.25 320.0 73.05 315.6 72.4 311.9 71.85 308.1 74.45 305.3 76.4 303.2 79.4 L303.25 79.55 303.1 79.75 305.0 86.5 Q306.2 90.85 307.05 91.9 L308.45 88.3 308.8 90.95 309.6 94.7 310.2 95.4 311.25 97.65 310.5 97.15 310.7 97.7 310.4 97.5 Q312.25 103.45 315.8 109.25 318.1 113.05 319.1 115.6 320.55 119.6 320.65 124.4 320.9 134.9 317.6 147.55 L314.6 163.5 314.1 169.25 314.85 169.95 314.15 170.9 314.15 171.15 314.05 171.25 313.95 173.9 312.0 173.95 312.0 173.35 309.45 176.0 309.65 176.05 309.35 176.35 313.8 177.75 M227.7 266.85 L246.2 268.75 Q262.35 271.15 285.25 277.35 295.55 280.1 307.2 283.65 L307.3 283.3 307.8 281.15 311.7 266.35 318.25 245.7 318.75 244.35 Q330.35 212.05 344.1 194.95 L343.95 194.9 344.2 194.6 Q297.0 176.95 260.1 169.9 L256.05 169.15 Q244.0 167.0 231.7 165.8 L231.65 165.75 227.25 165.4 213.15 164.5 Q206.3 164.2 199.4 164.2 L198.75 164.2 Q192.7 164.2 186.7 164.45 L172.15 165.3 170.1 165.45 170.1 165.5 162.65 166.25 143.15 169.0 141.15 169.35 141.15 169.4 138.1 169.95 Q102.0 176.85 53.25 194.45 L53.5 194.7 53.15 194.8 Q67.45 210.5 79.8 248.15 85.45 265.5 89.45 283.8 L109.6 278.15 Q136.15 271.05 153.2 268.6 165.25 266.85 183.35 266.3 L198.2 266.15 198.65 266.15 227.7 266.85 M255.9 177.85 Q258.25 178.95 259.8 180.7 L261.4 183.4 Q264.7 179.7 269.9 179.7 L273.0 180.05 282.55 182.0 Q288.5 183.25 291.3 187.55 L292.0 188.95 292.6 188.45 Q295.65 186.45 299.15 186.45 L303.05 187.0 312.55 189.75 Q318.05 191.35 320.4 195.55 322.35 198.9 321.95 203.0 L321.3 206.0 321.2 206.35 312.65 236.15 312.65 236.25 312.4 236.95 Q311.7 239.25 309.6 240.5 308.2 241.2 306.75 241.2 L305.1 241.0 297.35 238.75 Q295.3 238.15 294.1 236.4 L291.85 236.85 290.2 236.65 282.45 234.4 Q280.5 233.85 279.3 232.2 L275.85 232.7 274.6 232.65 275.5 235.15 Q276.5 238.65 276.25 242.7 L275.85 245.75 275.45 247.75 275.35 248.05 275.15 248.95 274.05 252.0 Q272.05 256.6 268.25 259.85 262.25 265.0 253.7 265.0 L249.0 264.6 Q243.65 263.7 239.4 260.9 235.3 258.2 232.8 254.1 229.7 257.2 225.6 258.85 221.35 260.55 216.5 260.55 L214.55 260.5 Q209.8 260.2 205.65 258.3 201.45 256.35 198.5 253.05 L197.35 251.65 Q194.5 255.45 190.15 257.75 185.75 260.05 180.25 260.55 L178.05 260.6 Q169.85 260.6 163.8 255.95 L161.75 258.35 Q156.45 263.3 146.75 264.95 L140.2 265.5 Q132.0 265.5 126.8 261.3 121.9 257.35 121.05 250.65 L120.95 249.9 Q120.8 248.55 121.2 247.45 L121.45 246.7 122.3 245.15 Q120.65 243.8 120.2 241.75 L119.9 239.9 119.85 239.3 Q119.7 237.3 120.05 235.35 L120.15 234.9 120.25 234.55 120.3 234.35 120.45 233.7 120.45 233.6 120.55 233.3 120.6 233.15 117.35 233.8 116.15 233.9 Q114.1 233.9 112.45 232.6 110.8 231.25 110.4 229.2 L109.55 224.95 Q107.75 225.95 105.65 226.55 L106.2 228.85 106.4 229.8 Q106.7 231.2 106.45 232.5 L106.3 232.95 105.55 234.6 Q104.25 236.7 101.85 237.25 L93.95 239.05 92.65 239.2 Q90.95 239.2 89.5 238.3 87.45 237.05 86.9 234.65 L86.0 230.85 Q83.75 230.7 82.15 229.1 81.05 228.0 80.65 226.55 L80.6 226.3 Q80.3 224.95 80.6 223.6 L82.1 217.55 82.2 217.2 82.25 217.0 82.65 216.05 78.1 196.55 78.1 196.5 Q77.75 194.95 78.25 193.5 78.45 192.6 78.95 191.75 80.3 189.7 82.6 189.15 L96.15 186.0 100.35 185.5 103.7 185.95 Q105.05 184.1 107.3 183.65 L115.2 182.0 116.4 181.9 117.75 182.1 Q119.0 181.1 120.5 180.8 L138.0 177.75 140.25 177.55 142.45 177.8 144.3 178.35 Q145.85 176.4 148.3 176.1 L165.95 173.95 167.55 173.85 Q170.0 173.85 172.05 174.8 L172.85 175.2 Q175.2 176.5 176.4 178.8 177.45 177.1 178.75 175.85 182.25 172.55 187.4 172.45 L195.85 172.25 Q199.95 172.25 203.1 174.1 L203.3 173.9 Q205.0 172.45 207.2 172.45 L207.55 172.45 230.4 173.9 232.35 174.35 233.65 175.15 Q235.0 174.55 236.2 174.55 L250.7 176.4 Q253.65 176.8 255.9 177.85 M331.0 272.7 Q348.85 277.45 369.8 284.45 L369.8 284.05 369.9 284.1 366.85 251.45 366.95 250.5 Q367.1 249.9 367.55 249.45 L388.3 225.7 388.15 225.65 388.4 225.35 Q370.6 218.9 354.8 213.9 L341.3 209.8 Q339.35 213.05 337.5 216.65 L337.35 216.85 337.35 216.95 337.2 217.25 337.35 217.0 337.3 217.25 336.55 218.65 336.9 217.85 Q329.45 232.2 322.8 251.9 L322.65 252.45 322.6 252.55 322.45 253.0 322.05 254.2 322.0 254.35 320.1 260.25 317.5 269.0 317.4 269.35 330.8 272.65 331.0 272.7 M336.9 217.85 L337.15 217.35 336.95 217.7 336.9 217.85 M303.5 90.55 L302.85 89.5 299.85 84.45 Q289.1 94.05 288.15 94.5 259.15 110.6 240.05 120.75 203.95 139.9 199.7 137.05 195.5 134.2 205.45 93.25 L205.75 92.05 213.6 61.75 217.45 49.45 218.2 47.5 Q218.85 45.8 228.9 30.55 L228.75 30.6 229.0 30.2 227.9 30.35 Q222.7 28.2 220.65 26.3 219.2 24.95 217.45 21.5 213.75 22.55 207.05 23.65 L191.55 25.65 Q186.1 25.75 184.0 24.65 L182.6 23.45 182.5 23.35 180.3 24.75 173.45 27.15 Q161.8 30.85 155.7 35.1 148.95 39.95 142.7 43.15 130.8 49.5 124.6 49.65 L123.9 49.6 120.75 53.6 113.3 62.3 Q101.95 75.9 98.05 84.5 L97.2 86.75 93.1 100.4 92.8 101.5 Q90.6 108.3 87.3 113.45 L86.95 114.05 86.9 113.85 84.65 116.7 84.7 116.95 84.55 117.05 84.6 117.3 84.45 117.4 85.3 130.75 85.45 133.1 Q86.0 145.15 87.35 150.8 91.15 165.4 96.1 171.6 L97.75 174.15 Q128.15 165.35 153.9 161.75 175.7 158.65 199.35 158.65 L200.0 158.65 Q224.15 158.6 246.85 161.9 274.0 165.8 305.4 175.25 L305.55 175.15 306.25 174.6 307.4 173.7 311.6 170.55 311.6 170.3 311.7 170.2 311.65 169.4 311.4 165.25 Q311.1 162.0 311.1 159.0 L314.0 144.25 Q316.75 128.95 316.7 127.25 316.55 118.45 311.5 110.45 L307.85 105.05 Q306.1 101.95 306.1 100.1 306.05 98.45 306.3 95.65 L306.5 94.3 304.3 91.8 303.55 90.6 303.5 90.55 M262.85 149.6 L262.6 150.1 Q258.55 159.05 256.7 159.35 254.7 159.7 246.35 155.3 L239.1 151.7 Q236.4 150.45 235.75 150.45 233.85 149.8 230.35 152.05 225.7 154.75 225.15 154.85 219.3 155.85 218.55 137.5 L218.75 136.2 Q219.1 134.8 220.5 133.5 222.1 132.15 224.15 132.45 L226.15 132.9 228.3 133.35 259.4 140.3 262.15 142.65 Q262.8 143.5 263.1 144.4 263.85 146.35 263.15 148.6 L262.85 149.6 M276.1 116.15 L273.65 112.4 273.8 111.6 Q273.95 110.6 275.2 109.7 276.6 108.6 279.85 107.4 L283.5 106.45 286.1 105.7 285.45 103.85 285.05 102.85 285.4 101.3 285.5 101.15 285.5 100.95 Q285.75 100.2 287.4 100.0 L288.2 100.3 Q289.15 101.05 290.7 103.6 292.75 107.65 293.75 112.1 294.9 117.55 293.85 120.95 292.55 125.85 287.0 126.85 283.65 127.35 276.1 116.15 M76.1 93.6 L76.0 93.6 75.95 93.95 75.9 93.95 74.45 100.2 74.35 100.2 73.4 100.65 73.05 100.65 72.95 100.55 Q71.55 102.85 70.4 105.75 L68.05 112.7 67.65 114.25 Q65.85 122.3 66.05 130.0 66.1 135.65 68.9 152.35 71.35 166.05 73.6 171.9 73.6 171.35 74.85 174.05 L77.55 179.75 Q84.45 177.5 93.25 174.9 L93.15 174.65 93.35 174.55 Q91.6 170.95 89.45 168.25 86.15 164.2 85.25 162.2 81.4 139.95 81.35 136.55 L81.4 118.35 77.45 118.15 78.45 117.3 81.65 114.5 85.15 110.1 Q87.8 105.95 89.45 100.8 L89.9 99.55 92.05 92.05 92.3 91.05 92.55 90.05 94.25 83.5 94.5 82.75 Q98.8 69.8 109.45 59.7 L111.75 57.5 115.5 53.75 Q116.9 51.95 117.4 50.05 L117.75 47.3 117.95 46.6 117.75 45.55 117.75 45.15 118.4 45.2 122.7 45.4 Q129.4 45.25 134.75 42.2 L139.7 39.05 141.15 38.05 Q145.65 35.35 149.7 33.6 153.5 32.0 163.9 26.9 174.45 21.95 180.9 19.75 L181.05 19.75 181.4 19.55 Q182.35 19.55 182.45 21.05 L184.55 22.05 Q186.05 22.65 187.2 22.65 L191.55 21.85 197.85 20.55 202.45 20.15 212.8 20.0 Q214.3 20.0 215.85 18.9 L216.25 18.6 217.25 17.55 219.65 15.5 219.7 15.5 220.5 15.35 220.75 15.35 221.05 15.6 221.25 15.65 221.55 15.85 Q222.05 16.25 222.1 17.9 L222.1 18.15 Q221.55 19.45 218.6 20.55 L218.8 20.8 218.5 20.9 Q219.95 22.6 221.8 23.75 223.65 24.95 226.8 26.15 228.5 26.8 229.25 27.95 229.5 28.0 229.7 28.2 231.95 27.45 233.3 24.2 L233.75 23.0 233.9 22.4 235.5 18.6 236.1 16.85 Q237.0 13.7 235.85 13.0 L235.35 12.7 235.65 12.9 Q236.4 13.35 235.35 12.8 222.5 6.7 209.3 7.0 195.95 7.25 186.45 10.3 L180.0 12.55 Q176.4 13.85 174.2 14.1 L173.5 14.5 172.8 14.1 Q172.65 13.95 172.65 13.15 L173.6 12.45 173.15 12.5 Q173.35 12.3 173.7 12.1 162.55 12.4 154.1 15.1 150.8 16.15 147.6 17.6 142.5 20.05 137.5 23.5 L137.45 23.6 124.0 34.1 Q117.1 39.4 111.45 42.0 L111.45 42.1 111.4 42.15 111.45 42.25 111.6 42.25 111.35 42.35 111.35 42.45 111.3 42.5 111.35 42.6 111.5 42.6 Q111.7 42.6 111.7 42.7 L111.8 42.75 Q93.7 54.9 84.55 71.1 83.2 73.55 82.0 76.25 L76.1 93.6 M204.85 46.95 Q205.0 43.25 203.9 40.75 L203.0 39.45 Q202.0 38.3 200.05 38.65 198.1 39.1 193.1 43.0 L191.75 44.15 Q185.75 49.2 185.7 50.45 L185.7 50.5 Q185.85 54.3 190.5 56.25 L193.85 57.4 196.4 57.6 Q202.45 56.55 204.2 50.7 204.7 49.0 204.85 46.95 M172.25 56.8 Q172.3 59.5 171.6 61.85 170.65 65.3 168.1 68.1 165.85 70.75 159.0 72.85 154.05 74.35 150.4 74.75 L138.2 74.0 Q128.15 73.0 127.05 72.45 121.8 68.9 121.8 66.25 L121.9 66.0 121.9 65.9 Q121.9 65.15 128.45 60.8 135.05 56.7 137.1 55.95 143.7 54.9 149.5 55.95 L159.85 56.45 163.95 54.35 Q166.9 52.75 169.3 53.05 171.55 53.35 172.25 55.0 L172.25 56.8 M208.15 39.65 Q209.65 42.45 209.6 46.15 209.65 49.1 208.95 51.55 208.15 54.45 206.25 56.6 202.85 60.45 196.1 61.6 191.95 62.4 187.15 59.55 181.9 56.3 181.65 50.85 L181.85 49.85 Q182.35 47.45 187.1 43.35 192.7 39.0 199.1 35.4 200.75 34.25 202.15 34.85 206.2 35.55 208.15 39.65 M166.6 60.4 L166.95 59.5 Q167.7 57.05 165.05 58.0 L160.9 60.1 159.3 61.05 Q158.55 61.5 158.05 61.55 L137.15 60.9 Q136.0 60.75 131.4 63.65 L127.05 66.55 127.3 66.7 126.95 66.9 Q135.45 71.15 146.65 71.35 153.8 71.55 159.7 67.85 164.8 64.65 166.6 60.4 M171.0 97.6 Q169.6 99.75 169.3 100.6 L169.35 100.65 169.2 100.95 Q169.85 102.2 173.2 103.2 L176.9 104.35 179.15 105.1 Q179.6 105.2 181.7 101.7 184.05 97.7 185.7 96.6 L190.2 95.25 Q192.05 94.75 192.6 92.95 L192.6 92.85 192.65 92.8 192.7 92.5 Q193.15 90.55 189.8 88.6 L186.0 86.75 Q183.45 85.55 179.1 86.3 178.7 86.35 177.5 87.95 L174.25 92.6 171.0 97.6 M171.8 89.7 Q177.45 82.6 178.55 82.4 184.85 81.3 189.2 84.1 191.85 85.7 194.45 89.05 197.4 92.85 196.7 94.95 L196.7 95.05 196.6 95.3 Q196.1 96.9 191.1 99.4 185.4 102.3 183.8 104.05 182.5 105.6 180.3 109.1 178.35 109.4 172.15 106.3 165.55 103.55 165.55 102.9 165.5 101.7 166.0 100.1 167.05 96.1 171.8 89.7 M231.55 145.8 Q237.1 144.55 242.0 147.15 L250.85 152.5 Q252.85 154.2 255.6 153.75 L257.65 151.1 258.9 148.5 Q259.4 146.9 259.2 145.35 L223.95 136.45 223.2 137.65 223.25 137.8 Q223.8 140.35 223.7 144.65 223.5 146.45 224.75 147.85 227.8 146.45 231.55 145.8 M177.95 127.75 Q176.4 127.75 173.7 129.15 L169.25 131.4 Q168.05 131.8 166.65 132.95 165.1 134.2 164.95 135.2 164.8 135.4 164.8 135.65 164.65 136.75 165.6 138.4 166.35 139.85 167.55 141.05 171.65 144.9 178.35 145.65 L184.0 144.9 Q187.35 144.05 187.85 143.1 L187.95 142.75 Q188.35 142.0 187.4 140.4 L185.8 137.7 Q184.35 133.95 182.2 131.05 179.75 127.75 177.95 127.75 M192.6 142.65 L192.25 145.0 191.7 146.3 Q184.55 149.85 183.6 150.05 178.05 151.05 170.8 149.15 160.9 146.3 160.6 138.35 160.55 137.45 160.9 136.5 161.9 132.45 169.1 127.7 L177.7 122.85 Q180.15 122.4 183.2 125.1 186.05 127.7 189.9 133.5 192.8 138.4 192.6 142.65 M203.4 190.5 L203.3 185.3 Q203.15 181.45 200.8 179.6 198.8 178.05 195.55 178.1 L187.5 178.3 Q184.6 178.4 182.7 180.2 L182.35 180.55 Q181.3 181.7 180.9 183.35 180.5 184.7 180.5 186.4 L180.75 195.75 180.95 202.6 180.0 202.65 177.35 208.25 177.45 208.25 177.25 208.6 181.05 208.5 181.3 218.05 189.45 217.85 189.45 217.5 189.55 217.5 189.3 208.3 195.4 208.1 195.65 217.7 204.0 217.45 204.0 217.1 204.1 217.1 203.8 204.45 203.75 203.75 203.75 203.2 203.4 190.5 M189.15 201.55 L188.75 186.15 188.85 185.1 Q189.2 184.05 190.4 184.05 L192.7 183.95 Q194.85 183.95 194.85 186.25 L195.3 202.3 193.1 202.35 189.15 202.45 189.15 201.55 M167.75 194.65 L171.3 185.05 171.35 185.0 171.45 184.65 171.45 184.55 171.6 182.8 Q171.4 181.2 170.1 180.35 168.75 179.5 166.65 179.75 L149.4 181.85 149.0 181.9 149.05 182.25 148.95 182.25 148.9 182.25 149.55 187.7 163.05 186.05 156.75 203.2 152.15 215.65 152.0 216.2 Q151.7 216.95 151.8 217.95 152.0 219.45 153.05 220.25 154.2 221.1 155.9 220.9 L174.7 218.6 174.65 218.3 174.8 218.25 174.15 212.9 160.45 214.6 163.15 207.25 167.75 194.65 M224.7 185.25 L229.6 185.55 229.65 185.2 229.7 185.2 230.0 179.75 207.2 178.3 207.15 178.65 207.1 178.65 207.05 179.05 207.1 179.05 206.75 184.1 214.25 184.55 213.1 202.35 212.1 218.2 220.15 218.75 220.2 218.4 220.25 218.4 221.1 205.15 222.4 185.1 224.7 185.25 M256.05 194.3 L256.5 190.55 Q257.0 186.6 255.35 184.55 253.75 182.7 249.95 182.25 L236.2 180.45 236.15 180.8 236.1 180.8 235.8 183.0 235.8 183.05 234.0 197.1 233.95 197.5 233.9 197.45 233.05 204.25 231.65 204.05 228.15 209.2 228.3 209.25 228.05 209.55 232.25 210.1 231.05 219.55 239.05 220.6 239.1 220.25 239.15 220.25 240.35 211.1 244.25 211.6 Q245.5 211.75 245.95 212.05 246.65 212.5 246.5 213.45 L245.9 218.3 Q245.6 220.2 246.45 221.15 L247.05 221.65 255.3 222.75 254.95 222.35 255.4 222.4 254.4 221.15 254.3 220.95 Q253.95 220.2 254.15 218.75 L255.0 212.2 Q255.3 209.95 254.0 208.35 253.15 207.25 251.5 206.75 254.05 206.1 254.75 203.35 L255.05 201.95 256.05 194.3 M288.0 109.95 Q285.85 110.3 280.25 112.35 L280.45 112.6 286.5 121.15 Q290.55 117.75 291.55 114.6 291.9 113.5 291.85 112.45 291.45 110.85 290.6 110.3 289.7 109.65 288.0 109.95 M287.3 130.65 Q288.95 130.65 292.1 132.25 295.6 134.0 298.65 136.65 301.85 137.8 305.0 140.7 307.95 143.4 308.15 145.0 L308.25 147.0 308.05 149.15 307.75 150.7 306.85 152.85 Q305.9 154.5 304.45 155.6 301.8 157.5 297.65 158.0 292.8 158.55 288.55 156.6 287.55 157.4 285.5 161.95 282.75 165.85 277.65 164.25 272.9 162.7 272.25 160.3 L272.35 160.0 272.35 159.95 273.1 157.8 Q273.45 156.75 276.05 153.25 L278.9 149.6 274.45 148.65 Q270.6 147.45 269.8 144.25 269.55 142.45 270.0 141.05 L270.15 140.55 Q271.8 135.8 279.5 132.75 285.45 130.6 287.3 130.65 M291.75 137.85 L290.75 136.3 Q289.45 134.7 288.1 134.5 286.7 134.3 283.45 135.5 L277.55 138.0 Q275.55 138.85 274.5 140.4 274.0 141.15 273.8 141.9 273.4 143.05 273.85 144.2 274.45 145.65 278.3 145.75 L282.9 145.7 Q284.0 145.95 284.05 146.95 L283.95 148.55 Q283.55 149.75 282.5 150.85 280.05 153.9 276.65 159.25 L276.75 159.3 276.55 159.6 280.85 160.95 285.75 151.75 292.65 154.45 Q296.85 156.0 298.0 155.85 L299.8 155.55 300.9 155.05 Q302.95 153.65 303.5 151.55 303.95 150.15 303.7 148.4 303.4 146.8 303.0 146.25 L301.55 144.25 Q299.3 141.65 295.25 140.0 L295.3 140.45 295.15 140.35 295.2 141.2 294.7 141.55 293.15 141.25 292.15 140.75 291.75 137.85 M241.35 203.4 L243.45 187.25 245.55 187.5 Q248.4 187.95 248.05 191.05 L246.55 202.7 246.4 203.5 Q245.9 205.1 244.65 205.5 L243.3 205.6 241.1 205.3 241.35 203.4 M285.35 204.6 L285.45 204.25 287.0 196.55 Q288.5 189.25 281.35 187.75 L271.8 185.8 269.4 185.6 269.35 185.6 267.45 186.1 Q266.6 186.5 265.9 187.2 264.65 188.5 264.05 190.85 L263.7 192.1 261.15 204.45 261.1 204.85 261.05 204.8 258.75 216.05 Q258.15 219.0 259.2 221.15 L259.45 221.6 Q260.85 223.9 263.9 224.5 L273.85 226.6 Q280.1 227.85 281.8 221.55 L281.95 221.15 282.1 220.35 282.95 216.35 285.35 204.6 M268.25 211.2 L271.6 194.95 271.75 194.4 Q272.5 191.9 274.8 192.35 L276.55 192.7 Q279.45 193.2 278.7 196.85 L274.5 217.15 274.3 218.2 273.55 219.6 Q272.8 220.5 271.0 220.1 L269.45 219.85 Q267.65 219.45 267.2 218.3 266.9 217.5 267.35 215.55 L268.25 211.2 M312.55 215.15 L315.65 204.35 Q316.65 200.8 315.3 198.5 314.0 196.3 310.9 195.4 L301.45 192.65 Q298.25 191.75 295.95 193.3 L294.85 194.3 293.9 195.6 Q293.3 196.6 292.95 197.9 L292.85 198.25 288.4 213.65 284.05 228.75 291.85 231.0 295.0 220.0 300.55 200.75 Q301.35 198.6 303.55 199.2 L305.9 199.9 Q308.25 200.55 307.65 202.9 L307.55 203.25 301.45 224.55 301.45 224.65 299.0 233.1 306.75 235.35 309.4 226.15 312.55 215.15 M102.35 97.1 Q104.45 96.1 106.95 96.25 109.55 96.4 110.6 97.75 113.2 100.65 113.65 104.35 113.85 109.15 113.1 111.65 L112.4 113.3 Q110.95 115.7 106.15 116.5 98.7 117.8 98.35 107.4 98.2 104.5 98.9 102.3 99.8 99.0 102.35 97.1 M147.3 104.35 Q145.65 104.45 144.35 108.35 L144.15 109.1 143.25 112.3 143.05 113.05 Q142.45 114.1 141.4 113.85 139.0 113.35 137.6 110.85 135.2 107.4 130.85 102.4 L128.15 106.3 128.25 106.4 128.05 106.65 135.8 114.35 131.2 120.3 Q128.45 124.0 128.2 125.2 L128.1 125.6 127.85 127.5 128.0 128.8 Q129.25 132.8 133.6 133.45 L135.95 133.4 138.4 132.55 Q141.85 131.0 144.65 127.4 L144.5 127.4 144.75 127.05 Q143.3 126.95 143.3 126.05 L143.3 126.0 144.0 124.9 144.8 124.05 147.85 124.5 149.75 123.95 Q151.8 123.15 152.4 121.85 L152.65 121.2 Q153.1 119.75 152.85 116.45 L152.15 109.75 Q151.85 107.45 150.6 105.9 149.2 104.15 147.3 104.35 M142.6 103.55 Q145.0 100.1 148.45 100.15 150.55 100.5 151.75 101.45 156.15 104.55 156.85 113.3 157.3 119.8 156.65 121.85 L156.55 122.2 Q156.0 123.9 153.45 126.6 150.6 129.6 147.0 131.9 144.9 134.8 141.05 137.1 137.35 139.25 135.65 138.95 L133.6 138.55 131.5 137.65 Q129.8 136.95 128.45 135.5 127.05 134.05 126.4 132.25 125.25 128.95 126.05 124.6 L126.45 122.85 126.6 122.4 Q127.6 118.6 130.15 115.65 129.35 114.3 125.7 111.05 123.4 108.35 124.45 105.1 124.8 103.6 125.85 102.05 128.85 97.7 131.45 97.8 L133.45 99.2 Q134.35 99.85 137.15 103.6 L140.2 107.95 Q141.35 105.45 142.6 103.55 M106.55 99.15 Q105.6 99.0 104.3 101.75 103.7 103.1 103.4 104.2 102.95 105.55 103.0 106.6 103.1 109.45 103.45 110.65 103.8 112.05 104.65 112.45 105.8 112.95 108.5 111.3 109.5 110.65 110.0 109.05 L110.1 108.7 Q110.6 107.15 110.35 105.45 110.1 103.7 108.85 101.55 107.55 99.3 106.55 99.15 M115.65 146.0 Q118.25 146.2 119.3 147.5 121.85 150.35 122.3 154.1 122.55 158.95 121.75 161.45 L121.1 163.1 Q119.65 165.45 114.85 166.3 107.45 167.6 107.0 157.15 106.9 154.25 107.6 152.05 108.45 148.7 111.05 146.9 113.1 145.85 115.65 146.0 M115.25 148.9 Q114.25 148.75 113.0 151.55 112.35 152.9 112.05 154.05 111.65 155.35 111.7 156.4 111.8 159.25 112.1 160.45 112.45 161.85 113.3 162.2 114.5 162.7 117.2 161.05 118.15 160.45 118.65 158.8 L118.75 158.45 Q119.25 156.9 119.05 155.2 118.8 153.5 117.55 151.3 116.2 149.1 115.25 148.9 M108.75 206.95 L106.5 197.25 Q105.6 193.4 103.35 192.05 101.1 190.9 97.5 191.75 L83.95 194.85 84.05 195.15 83.85 195.2 84.25 197.05 84.3 197.05 86.8 207.95 86.75 207.9 89.2 218.3 87.9 218.6 87.85 218.95 87.8 218.95 86.35 224.95 90.5 224.0 92.6 233.35 100.55 231.5 100.5 231.2 100.65 231.15 98.6 222.15 103.95 220.9 Q107.45 220.1 109.0 217.75 L109.1 217.65 109.15 217.55 109.35 217.15 109.8 215.95 Q110.4 214.05 109.85 211.75 L108.75 206.95 M96.75 214.15 L93.2 198.65 95.05 198.2 Q97.95 197.6 98.6 200.65 L101.25 212.1 Q101.55 213.4 101.35 214.35 L100.7 215.3 100.65 215.3 100.35 215.55 99.35 215.95 97.25 216.45 96.75 214.15 M117.5 193.1 L116.4 187.8 108.45 189.4 108.55 189.75 108.35 189.75 109.05 193.05 112.6 210.55 115.95 226.9 116.05 227.3 116.15 228.05 116.35 228.0 124.1 226.45 124.05 226.15 124.2 226.1 121.95 215.05 117.5 193.1 M121.55 186.95 L121.4 186.95 121.45 187.2 122.35 192.35 135.7 190.0 130.45 207.35 130.4 207.3 126.45 220.1 126.35 220.55 126.2 221.15 Q126.05 221.8 126.2 222.45 126.45 223.9 127.55 224.65 128.75 225.5 130.45 225.15 L149.05 221.9 149.0 221.6 149.15 221.55 148.25 216.25 134.6 218.65 136.7 211.85 141.55 196.2 143.9 188.6 144.0 188.4 144.0 188.25 144.15 186.3 Q143.85 184.75 142.5 183.95 141.1 183.2 139.0 183.55 L121.5 186.6 121.55 186.95 M126.95 234.2 L126.5 235.4 Q125.8 237.65 126.4 240.35 L136.3 238.8 136.25 238.5 136.4 238.45 Q136.15 237.3 136.4 236.35 136.6 235.65 137.1 235.1 138.45 233.5 141.5 233.0 L145.85 233.2 Q147.55 233.85 147.85 235.5 L147.85 236.45 Q147.4 237.65 145.65 238.5 142.8 239.9 137.1 240.5 L137.2 240.85 137.0 240.85 138.05 246.0 138.4 245.95 140.05 245.6 144.35 245.0 146.1 244.95 Q149.7 245.15 150.15 247.45 L150.15 248.4 149.8 249.05 149.75 249.0 Q149.15 249.9 147.9 250.55 L144.6 251.55 Q141.45 252.1 139.65 251.1 137.75 250.1 137.55 247.6 L133.55 248.1 133.55 248.15 127.35 248.95 127.4 249.3 127.25 249.3 Q127.8 255.35 132.9 257.75 137.75 260.1 145.65 258.7 152.65 257.5 156.5 254.5 159.2 252.4 159.9 249.75 160.45 248.05 160.1 246.15 159.65 243.4 157.3 241.9 155.35 240.6 152.55 240.5 154.7 239.45 156.0 237.8 156.85 236.7 157.15 235.55 L157.3 234.9 157.3 232.9 Q156.55 228.65 151.85 226.8 147.2 225.0 140.45 226.15 L133.45 228.2 Q132.45 228.65 131.6 229.2 L131.25 229.45 130.65 229.85 129.25 230.95 129.2 231.05 129.0 231.2 127.55 233.05 126.9 234.2 126.95 234.2 M44.85 213.15 Q27.9 218.4 8.8 225.25 L9.05 225.5 8.7 225.6 30.25 248.2 Q31.25 249.3 31.1 250.75 L26.9 284.55 Q49.95 276.85 69.8 271.85 L71.55 271.4 73.25 271.0 79.45 269.5 79.4 269.2 79.55 269.15 77.25 260.65 77.1 260.15 73.9 249.75 Q67.55 230.3 60.5 216.7 L56.55 209.65 44.85 213.15 M264.9 254.4 Q267.85 251.55 269.05 247.15 L269.6 244.65 Q270.9 237.2 267.1 232.35 263.4 227.55 255.6 226.2 248.3 224.95 243.05 228.25 238.4 231.25 236.8 237.0 L236.4 238.8 236.25 239.45 Q235.0 246.65 239.0 251.95 242.9 257.15 250.05 258.35 254.55 259.15 258.25 258.15 L259.55 257.75 260.15 257.5 261.5 256.85 264.9 254.4 M245.85 240.7 L246.15 239.45 Q246.85 237.0 248.55 235.5 250.95 233.35 254.45 233.9 257.7 234.45 259.25 237.15 260.75 239.75 260.15 243.3 L259.9 244.55 Q259.05 247.3 257.1 248.9 254.75 250.85 251.65 250.3 248.25 249.7 246.65 246.95 245.2 244.35 245.85 240.7 M216.8 229.45 Q220.05 229.65 221.9 232.2 223.7 234.6 223.45 238.2 L223.1 240.65 Q222.45 242.7 221.05 244.1 218.95 246.25 215.8 246.05 212.3 245.85 210.45 243.25 208.7 240.8 208.95 237.05 L209.35 234.8 Q209.9 232.95 211.1 231.6 213.25 229.2 216.8 229.45 M199.35 235.9 L199.25 236.85 Q198.75 244.1 203.35 249.0 207.8 253.75 215.0 254.2 L223.4 253.05 Q225.6 252.15 227.45 250.6 231.0 247.6 232.3 242.95 232.9 240.9 233.05 238.55 233.55 231.0 229.25 226.55 225.1 222.2 217.2 221.65 209.8 221.2 204.95 225.0 201.25 227.9 200.0 232.6 199.55 234.15 199.35 235.9 M172.55 232.4 Q174.3 229.75 177.85 229.45 181.15 229.2 183.35 231.4 185.45 233.55 185.75 237.15 185.9 239.25 185.45 240.95 185.05 242.25 184.3 243.3 182.5 245.8 179.35 246.05 175.9 246.35 173.7 244.05 171.6 241.9 171.3 238.15 171.15 236.1 171.6 234.5 171.9 233.35 172.55 232.4 M162.3 232.6 L162.2 232.85 Q161.3 235.75 161.6 239.35 162.2 246.6 167.4 250.75 172.5 254.8 179.7 254.2 185.0 253.75 188.75 251.25 L189.0 251.05 189.5 250.7 190.9 249.5 191.5 248.8 193.2 246.5 Q194.2 244.8 194.75 242.9 195.65 239.8 195.35 236.1 194.7 228.55 189.85 224.75 185.05 221.05 177.2 221.7 169.8 222.3 165.55 226.85 163.2 229.3 162.3 232.6" fill="#010101" fill-rule="evenodd" stroke="none"/>
      <path d="M335.65 124.45 L335.75 124.3 335.2 129.0 Q334.2 135.85 331.8 144.3 L330.3 149.35 330.0 150.25 325.0 165.65 324.75 166.45 322.5 174.85 322.05 176.85 322.05 176.75 321.95 177.2 321.8 174.35 Q321.5 170.95 319.9 169.35 L319.9 169.3 319.65 169.3 Q318.65 169.55 318.3 170.65 318.15 171.3 318.15 172.15 L318.1 178.75 318.05 178.75 318.0 179.1 313.8 177.75 313.95 177.4 313.9 177.4 Q317.7 165.95 322.1 154.35 329.6 134.85 335.65 124.45" fill="#be8627" fill-rule="evenodd" stroke="none"/>
      <path d="M335.65 124.45 Q329.6 134.85 322.1 154.35 317.7 165.95 313.9 177.4 L313.95 177.4 313.8 177.75 309.35 176.35 309.65 176.05 309.45 176.0 312.0 173.35 312.0 173.95 313.95 173.9 314.05 171.25 314.15 171.15 314.15 170.9 314.85 169.95 314.1 169.25 314.6 163.5 317.6 147.55 Q320.9 134.9 320.65 124.4 320.55 119.6 319.1 115.6 318.1 113.05 315.8 109.25 312.25 103.45 310.4 97.5 L310.7 97.7 310.5 97.15 311.25 97.65 310.2 95.4 309.6 94.7 308.8 90.95 308.45 88.3 307.05 91.9 Q306.2 90.85 305.0 86.5 L303.1 79.75 303.25 79.55 303.2 79.4 Q305.3 76.4 308.1 74.45 311.9 71.85 315.6 72.4 320.0 73.05 321.7 78.25 324.8 87.95 326.3 90.55 335.7 108.55 335.9 118.7 L335.85 123.75 335.75 124.1 335.75 124.25 335.75 124.3 335.65 124.4 335.65 124.45 M76.1 93.6 L76.0 93.95 Q84.65 93.65 91.65 79.8 93.6 76.0 96.75 68.35 99.1 62.4 100.95 58.85 105.2 51.8 115.65 44.15 124.95 37.4 134.1 33.55 137.5 32.15 141.75 29.45 L150.55 24.0 Q160.5 18.25 167.35 17.3 L170.0 17.15 Q172.4 17.2 188.0 13.95 203.6 10.6 209.7 10.55 216.8 10.35 222.05 12.55 L228.05 15.95 230.25 17.45 Q232.45 19.0 233.4 20.95 233.9 21.95 233.85 22.45 L233.9 22.4 233.75 23.0 233.3 24.2 Q231.95 27.45 229.7 28.2 229.5 28.0 229.25 27.95 228.5 26.8 226.8 26.15 223.65 24.95 221.8 23.75 219.95 22.6 218.5 20.9 L218.8 20.8 218.6 20.55 Q221.55 19.45 222.1 18.15 L222.1 17.9 Q222.05 16.25 221.55 15.85 L221.25 15.65 221.05 15.6 220.75 15.35 220.5 15.35 219.7 15.5 219.65 15.5 217.25 17.55 216.25 18.6 215.85 18.9 Q214.3 20.0 212.8 20.0 L202.45 20.15 197.85 20.55 191.55 21.85 187.2 22.65 Q186.05 22.65 184.55 22.05 L182.45 21.05 Q182.35 19.55 181.4 19.55 L181.05 19.75 180.9 19.75 Q174.45 21.95 163.9 26.9 153.5 32.0 149.7 33.6 145.65 35.35 141.15 38.05 L139.7 39.05 134.75 42.2 Q129.4 45.25 122.7 45.4 L118.4 45.2 117.75 45.15 117.75 45.55 117.95 46.6 117.75 47.3 117.4 50.05 Q116.9 51.95 115.5 53.75 L111.75 57.5 109.45 59.7 Q98.8 69.8 94.5 82.75 L94.25 83.5 92.55 90.05 92.3 91.05 92.05 92.05 89.9 99.55 89.45 100.8 Q87.8 105.95 85.15 110.1 L81.65 114.5 78.45 117.3 77.45 118.15 81.4 118.35 81.35 136.55 Q81.4 139.95 85.25 162.2 86.15 164.2 89.45 168.25 91.6 170.95 93.35 174.55 L93.15 174.65 93.25 174.9 Q84.45 177.5 77.55 179.75 L74.85 174.05 Q73.6 171.35 73.6 171.9 71.35 166.05 68.9 152.35 66.1 135.65 66.05 130.0 65.85 122.3 67.65 114.25 L68.05 112.7 70.4 105.75 Q71.55 102.85 72.95 100.55 L73.05 100.65 73.4 100.65 74.35 100.2 74.45 100.2 75.9 93.95 75.95 93.95 76.0 93.6 76.1 93.6" fill="#cd972b" fill-rule="evenodd" stroke="none"/>
      <path d="M256.05 169.15 L260.1 169.9 Q297.0 176.95 344.2 194.6 L343.95 194.9 344.1 194.95 Q330.35 212.05 318.75 244.35 L318.25 245.7 311.7 266.35 307.8 281.15 307.3 283.3 307.2 283.65 Q295.55 280.1 285.25 277.35 262.35 271.15 246.2 268.75 L227.7 266.85 230.7 267.0 229.6 259.2 232.8 256.55 Q235.3 260.65 239.4 263.35 243.65 266.15 249.0 267.05 L253.7 267.45 Q262.25 267.45 268.25 262.3 272.05 259.05 274.05 254.45 L275.15 251.4 275.3 250.7 275.85 248.2 Q276.3 245.45 276.25 242.7 276.5 238.65 275.5 235.15 L275.85 235.15 279.3 234.65 Q280.5 236.3 282.45 236.85 L290.2 239.1 291.85 239.3 294.1 238.85 Q295.3 240.6 297.35 241.2 L305.1 243.45 306.75 243.65 Q308.2 243.65 309.6 242.95 311.7 241.8 312.4 239.4 L321.2 208.8 321.3 208.45 Q322.1 205.7 321.95 203.0 322.35 198.9 320.4 195.55 318.05 191.35 312.55 189.75 L303.05 187.0 299.15 186.45 Q295.65 186.45 292.6 188.45 L292.0 188.95 291.3 187.55 Q288.5 183.25 282.55 182.0 L273.0 180.05 269.9 179.7 Q264.7 179.7 261.4 183.4 L259.8 180.7 Q258.25 178.95 255.9 177.85 256.55 173.45 255.95 169.5 L256.1 169.55 256.05 169.15 M183.35 266.3 Q165.25 266.85 153.2 268.6 136.15 271.05 109.6 278.15 L89.45 283.8 Q85.45 265.5 79.8 248.15 67.45 210.5 53.15 194.8 L53.5 194.7 53.25 194.45 Q102.0 176.85 138.1 169.95 L141.15 169.4 141.2 169.7 141.05 169.7 Q141.15 172.8 141.8 175.35 L142.45 177.8 140.25 177.55 138.0 177.75 120.5 180.8 Q119.0 181.1 117.75 182.1 L116.4 181.9 115.2 182.0 107.3 183.65 Q105.05 184.1 103.7 185.95 L100.35 185.5 96.15 186.0 82.6 189.15 Q80.3 189.7 78.95 191.75 78.45 192.6 78.25 193.5 77.75 194.95 78.1 196.5 77.8 197.75 78.1 199.0 L82.25 217.0 82.2 217.2 82.1 217.55 80.6 223.6 Q80.3 224.95 80.6 226.3 80.25 227.65 80.7 229.05 81.1 230.5 82.15 231.55 83.75 233.15 86.0 233.3 L86.9 237.1 Q87.45 239.5 89.5 240.75 90.95 241.65 92.65 241.65 L93.95 241.5 101.85 239.7 Q104.2 239.15 105.5 237.1 L106.3 235.35 Q106.7 234.0 106.45 232.5 106.7 231.2 106.4 229.8 L106.2 228.85 Q107.95 228.3 109.55 227.4 L110.4 231.65 Q110.8 233.7 112.45 235.05 114.1 236.35 116.15 236.35 L117.35 236.25 119.95 235.7 120.05 235.35 Q119.7 237.3 119.85 239.3 119.65 241.55 120.2 244.2 120.5 245.65 121.45 246.7 L121.2 247.45 Q120.8 248.55 120.95 249.9 L121.05 250.65 120.95 252.35 Q121.65 259.6 126.8 263.75 132.0 267.95 140.2 267.95 L146.75 267.4 Q152.4 266.45 156.55 264.4 L155.8 268.2 176.7 266.45 176.8 266.45 178.95 266.4 182.2 266.3 183.35 266.3 M354.8 213.9 Q370.6 218.9 388.4 225.35 L388.15 225.65 388.3 225.7 367.55 249.45 Q367.1 249.9 366.95 250.5 L366.85 251.45 369.9 284.1 369.8 284.05 369.8 284.45 Q348.85 277.45 331.0 272.7 L331.1 272.35 333.0 263.9 354.0 270.45 354.0 270.05 354.1 270.1 352.65 245.55 373.65 228.9 373.45 228.85 373.75 228.55 Q361.05 224.1 348.75 220.2 L348.65 220.2 348.8 220.05 350.55 218.25 354.7 214.25 354.5 214.2 354.8 213.9 M120.45 233.7 L120.3 234.35 120.4 233.75 120.45 233.7 M44.85 213.15 L43.35 213.65 43.6 213.9 43.25 214.0 48.4 220.05 Q36.5 223.4 23.4 227.5 L23.7 227.75 23.3 227.85 44.7 245.2 41.15 271.65 Q55.3 267.45 68.1 264.25 L69.8 271.85 Q49.95 276.85 26.9 284.55 L31.1 250.75 Q31.25 249.3 30.25 248.2 L8.7 225.6 9.05 225.5 8.8 225.25 Q27.9 218.4 44.85 213.15" fill="#d01f1e" fill-rule="evenodd" stroke="none"/>
      <path d="M321.95 203.0 Q322.1 205.7 321.3 208.45 L321.2 208.8 312.4 239.4 Q311.7 241.8 309.6 242.95 308.2 243.65 306.75 243.65 L305.1 243.45 297.35 241.2 Q295.3 240.6 294.1 238.85 L291.85 239.3 290.2 239.1 282.45 236.85 Q280.5 236.3 279.3 234.65 L275.85 235.15 275.5 235.15 274.6 232.65 275.85 232.7 279.3 232.2 Q280.5 233.85 282.45 234.4 L290.2 236.65 291.85 236.85 294.1 236.4 Q295.3 238.15 297.35 238.75 L305.1 241.0 306.75 241.2 Q308.2 241.2 309.6 240.5 311.7 239.25 312.4 236.95 L312.65 236.25 312.65 236.15 321.2 206.35 321.3 206.0 321.95 203.0 M276.25 242.7 Q276.3 245.45 275.85 248.2 L275.3 250.7 275.15 251.4 274.05 254.45 Q272.05 259.05 268.25 262.3 262.25 267.45 253.7 267.45 L249.0 267.05 Q243.65 266.15 239.4 263.35 235.3 260.65 232.8 256.55 L229.6 259.2 Q227.7 260.45 225.6 261.3 221.35 263.0 216.5 263.0 L214.55 262.95 214.15 262.95 Q209.6 262.55 205.65 260.75 201.45 258.8 198.5 255.5 L197.35 254.1 Q194.5 257.9 190.15 260.2 185.75 262.5 180.25 263.0 L178.05 263.05 177.8 263.05 Q169.75 262.95 163.8 258.4 L161.75 260.8 Q159.55 262.9 156.55 264.4 152.4 266.45 146.75 267.4 L140.2 267.95 Q132.0 267.95 126.8 263.75 121.65 259.6 120.95 252.35 L121.05 250.65 Q121.9 257.35 126.8 261.3 132.0 265.5 140.2 265.5 L146.75 264.95 Q156.45 263.3 161.75 258.35 L163.8 255.95 Q169.85 260.6 178.05 260.6 L180.25 260.55 Q185.75 260.05 190.15 257.75 194.5 255.45 197.35 251.65 L198.5 253.05 Q201.45 256.35 205.65 258.3 209.8 260.2 214.55 260.5 L216.5 260.55 Q221.35 260.55 225.6 258.85 229.7 257.2 232.8 254.1 235.3 258.2 239.4 260.9 243.65 263.7 249.0 264.6 L253.7 265.0 Q262.25 265.0 268.25 259.85 272.05 256.6 274.05 252.0 L275.15 248.95 275.35 248.05 275.45 247.75 275.85 245.75 276.25 242.7 M348.65 220.2 L348.75 220.2 Q361.05 224.1 373.75 228.55 L373.45 228.85 373.65 228.9 352.65 245.55 354.1 270.1 354.0 270.05 354.0 270.45 333.0 263.9 333.1 263.55 335.5 252.2 335.85 250.85 338.25 242.15 338.55 241.15 342.15 231.3 Q344.35 225.95 347.2 221.9 L348.4 220.5 348.25 220.45 348.5 220.15 347.95 219.95 348.65 220.2 M336.9 217.85 L336.95 217.7 337.15 217.35 336.9 217.85 M78.1 196.5 L78.1 196.55 82.65 216.05 82.25 217.0 78.1 199.0 Q77.8 197.75 78.1 196.5 M80.6 226.3 L80.65 226.55 Q81.05 228.0 82.15 229.1 83.75 230.7 86.0 230.85 L86.9 234.65 Q87.45 237.05 89.5 238.3 90.95 239.2 92.65 239.2 L93.95 239.05 101.85 237.25 Q104.25 236.7 105.55 234.6 L106.3 232.95 106.45 232.5 Q106.7 234.0 106.3 235.35 L105.5 237.1 Q104.2 239.15 101.85 239.7 L93.95 241.5 92.65 241.65 Q90.95 241.65 89.5 240.75 87.45 239.5 86.9 237.1 L86.0 233.3 Q83.75 233.15 82.15 231.55 81.1 230.5 80.7 229.05 80.25 227.65 80.6 226.3 M106.2 228.85 L105.65 226.55 Q107.75 225.95 109.55 224.95 L110.4 229.2 Q110.8 231.25 112.45 232.6 114.1 233.9 116.15 233.9 L117.35 233.8 120.6 233.15 120.55 233.3 120.45 233.6 120.45 233.7 120.4 233.75 120.3 234.35 120.25 234.55 120.15 234.9 120.05 235.35 119.95 235.7 117.35 236.25 116.15 236.35 Q114.1 236.35 112.45 235.05 110.8 233.7 110.4 231.65 L109.55 227.4 Q107.95 228.3 106.2 228.85 M119.85 239.3 L119.9 239.9 120.2 241.75 Q120.65 243.8 122.3 245.15 L121.45 246.7 Q120.5 245.65 120.2 244.2 119.65 241.55 119.85 239.3 M68.1 264.25 Q55.3 267.45 41.15 271.65 L44.7 245.2 23.3 227.85 23.7 227.75 23.4 227.5 Q36.5 223.4 48.4 220.05 L48.65 219.95 48.85 220.25 48.55 220.3 Q53.95 227.35 58.4 235.6 62.9 243.9 65.5 251.7 L66.7 257.1 68.1 264.25 M77.25 260.65 L77.35 261.1 77.1 260.15 77.25 260.65" fill="#a60118" fill-rule="evenodd" stroke="none"/>
      <path d="M354.8 213.9 L354.5 214.2 354.7 214.25 350.55 218.25 348.8 220.05 348.65 220.2 347.95 219.95 337.45 216.75 337.35 217.0 337.2 217.25 337.35 216.95 337.5 216.65 Q339.35 213.05 341.3 209.8 L354.8 213.9 M333.0 263.9 L331.1 272.35 331.0 272.7 330.8 272.65 317.4 269.35 317.5 269.0 320.1 260.25 333.0 263.9 M48.4 220.05 L43.25 214.0 43.6 213.9 43.35 213.65 44.85 213.15 56.55 209.65 60.5 216.7 48.65 219.95 48.4 220.05 M69.8 271.85 L68.1 264.25 77.4 262.0 77.35 261.75 77.35 261.7 77.45 261.65 77.5 261.65 77.5 261.6 77.35 261.1 77.25 260.65 79.55 269.15 79.4 269.2 79.45 269.5 73.25 271.0 71.55 271.4 69.8 271.85" fill="#ae201a" fill-rule="evenodd" stroke="none"/>
      <path d="M320.1 260.25 L322.0 254.35 322.05 254.2 322.45 253.0 322.6 252.55 322.65 252.45 322.8 251.9 Q329.45 232.2 336.9 217.85 L336.55 218.65 337.3 217.25 337.35 217.0 337.45 216.75 347.95 219.95 348.5 220.15 348.25 220.45 348.4 220.5 347.2 221.9 Q344.35 225.95 342.15 231.3 L338.55 241.15 338.25 242.15 335.85 250.85 335.5 252.2 333.1 263.55 333.0 263.9 320.1 260.25 M337.35 216.95 L337.35 216.85 337.5 216.65 337.35 216.95 M48.65 219.95 L60.5 216.7 Q67.55 230.3 73.9 249.75 L77.1 260.15 77.35 261.1 77.5 261.6 77.5 261.65 77.45 261.65 77.35 261.7 77.35 261.75 77.4 262.0 68.1 264.25 66.7 257.1 65.5 251.7 Q62.9 243.9 58.4 235.6 53.95 227.35 48.55 220.3 L48.85 220.25 48.65 219.95" fill="#930115" fill-rule="evenodd" stroke="none"/>
      <path d="M86.95 114.05 Q87.8 123.5 91.25 134.75 95.75 149.45 104.25 162.8 107.15 167.25 109.75 170.45 L109.45 170.55 109.65 170.8 98.0 174.05 96.2 171.25 Q91.2 164.85 87.5 150.45 86.05 144.5 85.55 132.75 L85.4 130.4 84.6 117.3 84.55 117.05 84.7 116.95 84.65 116.7 86.9 113.85 86.95 114.05 M305.55 175.15 Q283.8 168.6 264.5 164.7 264.65 161.3 264.3 157.9 263.1 153.7 262.85 149.6 L263.15 148.6 Q263.85 146.35 263.1 144.4 L264.15 136.95 265.0 134.3 266.2 131.3 Q268.35 126.6 272.9 120.25 L276.1 116.15 Q283.65 127.35 287.0 126.85 292.55 125.85 293.85 120.95 294.9 117.55 293.75 112.1 292.75 107.65 290.7 103.6 289.15 101.05 288.2 100.3 L293.2 93.85 Q299.55 85.95 300.1 86.75 301.65 88.75 303.5 90.55 L303.55 90.6 304.3 91.8 306.5 94.3 306.3 95.65 Q306.05 98.45 306.1 100.1 306.1 101.95 307.85 105.05 L311.5 110.45 Q316.55 118.45 316.7 127.25 316.75 128.95 314.0 144.25 L311.1 159.0 Q311.1 162.0 311.4 165.25 L311.65 169.4 311.7 170.2 311.6 170.3 311.6 170.55 307.4 173.7 306.25 174.6 305.55 175.15 M283.5 106.45 L285.45 103.85 286.1 105.7 283.5 106.45 M287.3 130.65 Q285.45 130.6 279.5 132.75 271.8 135.8 270.15 140.55 L270.0 141.05 Q269.55 142.45 269.8 144.25 270.6 147.45 274.45 148.65 L278.9 149.6 276.05 153.25 Q273.45 156.75 273.1 157.8 L272.35 159.95 272.35 160.0 272.25 160.3 Q272.9 162.7 277.65 164.25 282.75 165.85 285.5 161.95 287.55 157.4 288.55 156.6 292.8 158.55 297.65 158.0 301.8 157.5 304.45 155.6 305.9 154.5 306.85 152.85 L307.75 150.7 308.05 149.15 308.25 147.0 308.15 145.0 Q307.95 143.4 305.0 140.7 301.85 137.8 298.65 136.65 295.6 134.0 292.1 132.25 288.95 130.65 287.3 130.65" fill="#d6b585" fill-rule="evenodd" stroke="none"/>
      <path d="M86.95 114.05 L87.3 113.45 Q90.6 108.3 92.8 101.5 L93.1 100.4 97.2 86.75 98.05 84.5 Q101.95 75.9 113.3 62.3 L120.75 53.6 123.9 49.6 124.6 49.65 Q130.8 49.5 142.7 43.15 148.95 39.95 155.7 35.1 161.8 30.85 173.45 27.15 L180.3 24.75 182.5 23.35 182.6 23.45 184.0 24.65 Q186.1 25.75 191.55 25.65 L207.05 23.65 Q213.75 22.55 217.45 21.5 219.2 24.95 220.65 26.3 222.7 28.2 227.9 30.35 L229.0 30.2 228.75 30.6 228.9 30.55 Q218.85 45.8 218.2 47.5 L217.45 49.45 213.6 61.75 205.75 92.05 205.45 93.25 Q195.5 134.2 199.7 137.05 203.95 139.9 240.05 120.75 259.15 110.6 288.15 94.5 289.1 94.05 299.85 84.45 L302.85 89.5 303.5 90.55 Q301.65 88.75 300.1 86.75 299.55 85.95 293.2 93.85 L288.2 100.3 287.4 100.0 Q285.75 100.2 285.5 100.95 L285.5 101.15 285.4 101.3 285.05 102.85 285.45 103.85 283.5 106.45 279.85 107.4 Q276.6 108.6 275.2 109.7 273.95 110.6 273.8 111.6 L273.65 112.4 276.1 116.15 272.9 120.25 Q268.35 126.6 266.2 131.3 L265.0 134.3 264.15 136.95 263.1 144.4 Q262.8 143.5 262.15 142.65 L259.4 140.3 228.3 133.35 226.15 132.9 224.15 132.45 Q222.1 132.15 220.5 133.5 219.1 134.8 218.75 136.2 L218.55 137.5 Q219.3 155.85 225.15 154.85 225.7 154.75 230.35 152.05 233.85 149.8 235.75 150.45 236.4 150.45 239.1 151.7 L246.35 155.3 Q254.7 159.7 256.7 159.35 258.55 159.05 262.6 150.1 L262.85 149.6 Q263.1 153.7 264.3 157.9 264.65 161.3 264.5 164.7 283.8 168.6 305.55 175.15 L305.4 175.25 Q274.0 165.8 246.85 161.9 224.15 158.6 200.0 158.65 L199.35 158.65 Q175.7 158.65 153.9 161.75 128.15 165.35 97.75 174.15 L96.1 171.6 Q91.15 165.4 87.35 150.8 86.0 145.15 85.45 133.1 L85.3 130.75 84.45 117.4 84.6 117.3 85.4 130.4 85.55 132.75 Q86.05 144.5 87.5 150.45 91.2 164.85 96.2 171.25 L98.0 174.05 109.65 170.8 109.45 170.55 109.75 170.45 Q107.15 167.25 104.25 162.8 95.75 149.45 91.25 134.75 87.8 123.5 86.95 114.05 M208.15 39.65 Q206.2 35.55 202.15 34.85 200.75 34.25 199.1 35.4 192.7 39.0 187.1 43.35 182.35 47.45 181.85 49.85 L181.65 50.85 Q181.9 56.3 187.15 59.55 191.95 62.4 196.1 61.6 202.85 60.45 206.25 56.6 208.15 54.45 208.95 51.55 209.65 49.1 209.6 46.15 209.65 42.45 208.15 39.65 M172.25 56.8 L172.25 55.0 Q171.55 53.35 169.3 53.05 166.9 52.75 163.95 54.35 L159.85 56.45 149.5 55.95 Q143.7 54.9 137.1 55.95 135.05 56.7 128.45 60.8 121.9 65.15 121.9 65.9 L121.9 66.0 121.8 66.25 Q121.8 68.9 127.05 72.45 128.15 73.0 138.2 74.0 L150.4 74.75 Q154.05 74.35 159.0 72.85 165.85 70.75 168.1 68.1 170.65 65.3 171.6 61.85 172.3 59.5 172.25 56.8 M171.8 89.7 Q167.05 96.1 166.0 100.1 165.5 101.7 165.55 102.9 165.55 103.55 172.15 106.3 178.35 109.4 180.3 109.1 182.5 105.6 183.8 104.05 185.4 102.3 191.1 99.4 196.1 96.9 196.6 95.3 L196.7 95.05 196.7 94.95 Q197.4 92.85 194.45 89.05 191.85 85.7 189.2 84.1 184.85 81.3 178.55 82.4 177.45 82.6 171.8 89.7 M192.6 142.65 Q192.8 138.4 189.9 133.5 186.05 127.7 183.2 125.1 180.15 122.4 177.7 122.85 L169.1 127.7 Q161.9 132.45 160.9 136.5 160.55 137.45 160.6 138.35 160.9 146.3 170.8 149.15 178.05 151.05 183.6 150.05 184.55 149.85 191.7 146.3 L192.25 145.0 192.6 142.65 M102.35 97.1 Q99.8 99.0 98.9 102.3 98.2 104.5 98.35 107.4 98.7 117.8 106.15 116.5 110.95 115.7 112.4 113.3 L113.1 111.65 Q113.85 109.15 113.65 104.35 113.2 100.65 110.6 97.75 109.55 96.4 106.95 96.25 104.45 96.1 102.35 97.1 M142.6 103.55 Q141.35 105.45 140.2 107.95 L137.15 103.6 Q134.35 99.85 133.45 99.2 L131.45 97.8 Q128.85 97.7 125.85 102.05 124.8 103.6 124.45 105.1 123.4 108.35 125.7 111.05 129.35 114.3 130.15 115.65 127.6 118.6 126.6 122.4 L126.45 122.85 126.05 124.6 Q125.25 128.95 126.4 132.25 127.05 134.05 128.45 135.5 129.8 136.95 131.5 137.65 L133.6 138.55 135.65 138.95 Q137.35 139.25 141.05 137.1 144.9 134.8 147.0 131.9 150.6 129.6 153.45 126.6 156.0 123.9 156.55 122.2 L156.65 121.85 Q157.3 119.8 156.85 113.3 156.15 104.55 151.75 101.45 150.55 100.5 148.45 100.15 145.0 100.1 142.6 103.55 M115.65 146.0 Q113.1 145.85 111.05 146.9 108.45 148.7 107.6 152.05 106.9 154.25 107.0 157.15 107.45 167.6 114.85 166.3 119.65 165.45 121.1 163.1 L121.75 161.45 Q122.55 158.95 122.3 154.1 121.85 150.35 119.3 147.5 118.25 146.2 115.65 146.0" fill="#f4d4a6" fill-rule="evenodd" stroke="none"/>
      <path d="M233.9 22.4 L233.85 22.45 Q233.9 21.95 233.4 20.95 232.45 19.0 230.25 17.45 L228.05 15.95 222.05 12.55 Q216.8 10.35 209.7 10.55 203.6 10.6 188.0 13.95 172.4 17.2 170.0 17.15 L167.35 17.3 Q160.5 18.25 150.55 24.0 L141.75 29.45 Q137.5 32.15 134.1 33.55 124.95 37.4 115.65 44.15 105.2 51.8 100.95 58.85 99.1 62.4 96.75 68.35 93.6 76.0 91.65 79.8 84.65 93.65 76.0 93.95 L76.1 93.6 82.0 76.25 Q83.2 73.55 84.55 71.1 93.7 54.9 111.8 42.75 L111.7 42.7 Q111.7 42.6 111.5 42.6 L111.35 42.6 111.3 42.5 111.35 42.45 111.35 42.35 111.6 42.25 111.45 42.25 111.4 42.15 111.45 42.1 111.45 42.0 Q117.1 39.4 124.0 34.1 L137.45 23.6 137.5 23.5 Q142.5 20.05 147.6 17.6 150.8 16.15 154.1 15.1 162.55 12.4 173.7 12.1 173.35 12.3 173.15 12.5 L173.6 12.45 172.65 13.15 Q172.65 13.95 172.8 14.1 L173.5 14.5 174.2 14.1 Q176.4 13.85 180.0 12.55 L186.45 10.3 Q195.95 7.25 209.3 7.0 222.5 6.7 235.35 12.8 236.4 13.35 235.65 12.9 L235.35 12.7 235.85 13.0 Q237.0 13.7 236.1 16.85 L235.5 18.6 233.9 22.4" fill="#dca735" fill-rule="evenodd" stroke="none"/>
      <path d="M204.85 46.95 Q204.7 49.0 204.2 50.7 202.45 56.55 196.4 57.6 L193.85 57.4 190.5 56.25 Q185.85 54.3 185.7 50.5 L185.7 50.45 Q185.75 49.2 191.75 44.15 L193.1 43.0 Q198.1 39.1 200.05 38.65 202.0 38.3 203.0 39.45 L203.9 40.75 Q205.0 43.25 204.85 46.95 M177.95 127.75 Q179.75 127.75 182.2 131.05 184.35 133.95 185.8 137.7 L187.4 140.4 Q188.35 142.0 187.95 142.75 L187.85 143.1 Q187.35 144.05 184.0 144.9 L178.35 145.65 Q171.65 144.9 167.55 141.05 166.35 139.85 165.6 138.4 164.65 136.75 164.8 135.65 164.8 135.4 164.95 135.2 165.1 134.2 166.65 132.95 168.05 131.8 169.25 131.4 L173.7 129.15 Q176.4 127.75 177.95 127.75 M288.0 109.95 Q289.7 109.65 290.6 110.3 291.45 110.85 291.85 112.45 291.9 113.5 291.55 114.6 290.55 117.75 286.5 121.15 L280.45 112.6 280.25 112.35 Q285.85 110.3 288.0 109.95 M106.55 99.15 Q107.55 99.3 108.85 101.55 110.1 103.7 110.35 105.45 110.6 107.15 110.1 108.7 L110.0 109.05 Q109.5 110.65 108.5 111.3 105.8 112.95 104.65 112.45 103.8 112.05 103.45 110.65 103.1 109.45 103.0 106.6 102.95 105.55 103.4 104.2 103.7 103.1 104.3 101.75 105.6 99.0 106.55 99.15 M115.25 148.9 Q116.2 149.1 117.55 151.3 118.8 153.5 119.05 155.2 119.25 156.9 118.75 158.45 L118.65 158.8 Q118.15 160.45 117.2 161.05 114.5 162.7 113.3 162.2 112.45 161.85 112.1 160.45 111.8 159.25 111.7 156.4 111.65 155.35 112.05 154.05 112.35 152.9 113.0 151.55 114.25 148.75 115.25 148.9" fill="#d34349" fill-rule="evenodd" stroke="none"/>
      <path d="M166.6 60.4 Q164.8 64.65 159.7 67.85 153.8 71.55 146.65 71.35 135.45 71.15 126.95 66.9 L127.3 66.7 127.05 66.55 131.4 63.65 Q136.0 60.75 137.15 60.9 L158.05 61.55 Q158.55 61.5 159.3 61.05 L160.9 60.1 165.05 58.0 Q167.7 57.05 166.95 59.5 L166.6 60.4 M171.0 97.6 L174.25 92.6 177.5 87.95 Q178.7 86.35 179.1 86.3 183.45 85.55 186.0 86.75 L189.8 88.6 Q193.15 90.55 192.7 92.5 L192.65 92.8 192.6 92.85 192.6 92.95 Q192.05 94.75 190.2 95.25 L185.7 96.6 Q184.05 97.7 181.7 101.7 179.6 105.2 179.15 105.1 L176.9 104.35 173.2 103.2 Q169.85 102.2 169.2 100.95 L169.35 100.65 169.3 100.6 Q169.6 99.75 171.0 97.6 M231.55 145.8 Q227.8 146.45 224.75 147.85 223.5 146.45 223.7 144.65 223.8 140.35 223.25 137.8 L223.2 137.65 223.95 136.45 259.2 145.35 Q259.4 146.9 258.9 148.5 L257.65 151.1 255.6 153.75 Q252.85 154.2 250.85 152.5 L242.0 147.15 Q237.1 144.55 231.55 145.8" fill="#2b9721" fill-rule="evenodd" stroke="none"/>
      <path d="M198.65 266.15 L198.2 266.15 183.35 266.3 182.2 266.3 178.95 266.4 176.8 266.45 177.8 263.05 178.05 263.05 180.25 263.0 Q185.75 262.5 190.15 260.2 194.5 257.9 197.35 254.1 L198.5 255.5 Q201.45 258.8 205.65 260.75 209.6 262.55 214.15 262.95 L214.55 266.25 201.65 266.15 198.65 266.15 M170.1 165.5 L170.1 165.45 172.15 165.3 186.7 164.45 Q192.7 164.2 198.75 164.2 L199.4 164.2 Q206.3 164.2 213.15 164.5 L227.25 165.4 231.65 165.75 231.7 165.8 231.8 166.2 231.6 166.15 Q232.75 169.85 232.35 174.35 L230.4 173.9 207.55 172.45 207.2 172.45 Q205.0 172.45 203.3 173.9 L203.1 174.1 Q199.95 172.25 195.85 172.25 L187.4 172.45 Q182.25 172.55 178.75 175.85 177.45 177.1 176.4 178.8 175.2 176.5 172.85 175.2 L172.05 174.8 Q170.3 169.5 170.0 165.8 L170.15 165.8 170.1 165.5" fill="#f61e24" fill-rule="evenodd" stroke="none"/>
      <path d="M256.05 169.15 L256.1 169.55 255.95 169.5 Q256.55 173.45 255.9 177.85 253.65 176.8 250.7 176.4 L236.2 174.55 Q235.0 174.55 233.65 175.15 L232.35 174.35 Q232.75 169.85 231.6 166.15 L231.8 166.2 231.7 165.8 Q244.0 167.0 256.05 169.15 M229.6 259.2 L230.7 267.0 227.7 266.85 198.65 266.15 201.65 266.15 214.55 266.25 214.15 262.95 214.55 262.95 216.5 263.0 Q221.35 263.0 225.6 261.3 227.7 260.45 229.6 259.2 M141.15 169.4 L141.15 169.35 143.15 169.0 162.65 166.25 170.1 165.5 170.15 165.8 170.0 165.8 Q170.3 169.5 172.05 174.8 170.0 173.85 167.55 173.85 L165.95 173.95 148.3 176.1 Q145.85 176.4 144.3 178.35 L142.45 177.8 141.8 175.35 Q141.15 172.8 141.05 169.7 L141.2 169.7 141.15 169.4 M156.55 264.4 Q159.55 262.9 161.75 260.8 L163.8 258.4 Q169.75 262.95 177.8 263.05 L176.8 266.45 176.7 266.45 155.8 268.2 156.55 264.4" fill="#ea1e22" fill-rule="evenodd" stroke="none"/>
      <path d="M203.4 190.5 L203.3 190.55 203.3 190.85 202.05 191.05 Q200.75 190.9 199.4 188.4 L197.5 184.95 Q194.45 181.1 190.55 181.25 L182.65 181.75 181.75 181.6 182.0 181.3 181.85 181.25 182.35 180.55 182.7 180.2 Q184.6 178.4 187.5 178.3 L195.55 178.1 Q198.8 178.05 200.8 179.6 203.15 181.45 203.3 185.3 L203.4 190.5 M149.4 181.85 L166.65 179.75 Q168.75 179.5 170.1 180.35 171.4 181.2 171.6 182.8 L171.45 184.55 171.45 184.65 171.35 185.0 171.3 185.05 167.75 194.65 Q167.0 193.85 167.0 191.1 166.95 188.0 166.65 187.35 164.95 182.9 159.5 183.5 L154.9 184.1 Q152.3 184.35 150.7 183.6 149.65 183.2 148.95 182.25 L149.05 182.25 149.3 182.2 149.05 181.9 149.4 181.85 M207.1 179.05 L207.05 179.05 207.1 178.65 207.15 178.65 207.2 178.3 230.0 179.75 229.7 185.2 229.65 185.2 229.6 185.55 224.7 185.25 Q222.05 182.25 217.9 181.4 212.85 180.8 209.75 179.9 L207.1 179.05 M235.8 183.05 L235.8 183.0 236.1 180.8 236.15 180.8 236.2 180.45 249.95 182.25 Q253.75 182.7 255.35 184.55 257.0 186.6 256.5 190.55 L256.05 194.3 256.0 194.3 255.95 194.65 254.4 193.45 252.35 190.2 Q251.25 188.15 249.9 187.1 248.15 185.85 246.3 185.4 L242.45 184.95 238.6 184.65 Q236.45 184.35 235.8 183.05 M291.75 137.85 L292.15 140.75 293.15 141.25 294.7 141.55 295.2 141.2 295.15 140.35 295.3 140.45 295.25 140.0 Q299.3 141.65 301.55 144.25 L303.0 146.25 Q303.4 146.8 303.7 148.4 303.95 150.15 303.5 151.55 302.95 153.65 300.9 155.05 L299.8 155.55 298.0 155.85 Q296.85 156.0 292.65 154.45 L285.75 151.75 280.85 160.95 276.55 159.6 276.75 159.3 276.65 159.25 Q280.05 153.9 282.5 150.85 283.55 149.75 283.95 148.55 L284.05 146.95 Q284.0 145.95 282.9 145.7 L278.3 145.75 Q274.45 145.65 273.85 144.2 273.4 143.05 273.8 141.9 274.0 141.15 274.5 140.4 275.55 138.85 277.55 138.0 L283.45 135.5 Q286.7 134.3 288.1 134.5 289.45 134.7 290.75 136.3 L291.75 137.85 M265.9 187.2 Q266.6 186.5 267.45 186.1 L269.35 185.6 269.4 185.6 271.8 185.8 281.35 187.75 Q288.5 189.25 287.0 196.55 L285.45 204.25 285.35 204.6 Q283.95 204.4 283.75 202.05 L283.65 198.5 Q283.0 188.6 270.65 188.15 L267.7 188.25 Q266.25 188.2 265.8 187.55 L266.05 187.35 265.9 187.2 M312.55 215.15 Q311.6 214.1 311.25 208.8 L310.8 202.5 Q309.75 199.0 305.2 197.2 303.0 196.1 300.7 196.3 L296.15 196.65 Q294.65 196.5 293.8 195.95 L294.0 195.65 293.9 195.6 294.85 194.3 295.95 193.3 Q298.25 191.75 301.45 192.65 L310.9 195.4 Q314.0 196.3 315.3 198.5 316.65 200.8 315.65 204.35 L312.55 215.15 M147.3 104.35 Q149.2 104.15 150.6 105.9 151.85 107.45 152.15 109.75 L152.85 116.45 Q153.1 119.75 152.65 121.2 L152.4 121.85 Q151.8 123.15 149.75 123.95 L147.85 124.5 144.8 124.05 144.0 124.9 143.3 126.0 143.3 126.05 Q143.3 126.95 144.75 127.05 L144.5 127.4 144.65 127.4 Q141.85 131.0 138.4 132.55 L135.95 133.4 133.6 133.45 Q129.25 132.8 128.0 128.8 L127.85 127.5 128.1 125.6 128.2 125.2 Q128.45 124.0 131.2 120.3 L135.8 114.35 128.05 106.65 128.25 106.4 128.15 106.3 130.85 102.4 Q135.2 107.4 137.6 110.85 139.0 113.35 141.4 113.85 142.45 114.1 143.05 113.05 L143.25 112.3 144.15 109.1 144.35 108.35 Q145.65 104.45 147.3 104.35 M108.75 206.95 L108.45 206.45 108.65 207.3 Q108.0 206.3 106.7 202.95 105.6 200.2 104.2 198.8 101.4 196.0 98.9 195.4 L93.05 195.6 88.95 196.5 84.3 197.05 84.25 197.05 83.85 195.2 84.05 195.15 83.95 194.85 97.5 191.75 Q101.1 190.9 103.35 192.05 105.6 193.4 106.5 197.25 L108.75 206.95 M109.05 193.05 L108.35 189.75 108.55 189.75 108.45 189.4 116.4 187.8 117.5 193.1 117.7 194.3 117.5 194.15 117.6 194.65 Q116.1 193.45 113.3 193.35 L109.05 193.05 M121.45 187.2 L121.4 186.95 121.55 186.95 121.65 186.9 121.55 186.85 121.5 186.6 139.0 183.55 Q141.1 183.2 142.5 183.95 143.85 184.75 144.15 186.3 L144.0 188.25 143.9 188.6 141.55 196.2 140.15 192.25 Q139.35 189.8 137.7 188.65 135.3 187.5 130.0 188.15 123.65 188.45 121.45 187.2 M126.95 234.2 L126.9 234.2 127.55 233.05 129.0 231.2 129.2 231.05 129.25 230.95 130.65 229.85 131.25 229.45 131.6 229.2 Q132.45 228.65 133.45 228.2 L140.45 226.15 Q147.2 225.0 151.85 226.8 156.55 228.65 157.3 232.9 L157.3 234.9 157.15 235.55 156.55 236.95 Q155.85 237.0 155.0 235.55 L153.4 233.05 Q152.1 231.75 149.7 230.7 147.75 229.85 145.65 229.35 141.1 228.65 136.35 230.25 134.05 231.05 127.85 234.15 L126.8 234.55 127.0 234.2 126.95 234.2 M133.55 248.15 L133.55 248.1 137.55 247.6 Q137.75 250.1 139.65 251.1 141.45 252.1 144.6 251.55 L147.9 250.55 Q149.15 249.9 149.75 249.0 L149.8 249.05 149.9 249.1 Q151.1 249.8 150.7 250.5 L150.55 250.9 Q149.95 251.75 146.75 252.75 143.75 253.75 139.85 253.4 135.25 252.95 133.95 250.6 133.35 249.6 133.45 248.5 L133.45 248.45 133.55 248.45 133.55 248.15 M138.4 245.95 L138.05 246.0 138.0 245.6 138.4 245.95 M138.15 245.65 L138.1 245.25 138.5 245.6 138.15 245.65 M245.9 230.0 Q243.75 230.05 243.7 228.2 248.8 225.4 255.5 226.55 263.3 227.9 267.0 232.7 270.8 237.55 269.5 245.0 L269.15 246.65 Q268.15 245.75 267.55 242.75 L266.65 238.65 Q264.45 233.7 259.85 231.2 255.35 228.75 249.9 229.35 L245.9 230.0 M211.85 224.3 L208.05 225.5 Q205.4 226.4 204.25 225.9 209.15 221.55 217.1 222.0 224.3 222.5 228.45 226.2 232.65 230.0 232.95 236.45 231.4 236.6 230.5 234.4 227.95 228.3 223.4 225.85 218.95 223.5 211.85 224.3 M165.9 226.95 L165.8 226.8 Q170.0 222.65 177.1 222.05 184.5 221.45 189.2 224.7 193.95 228.05 195.05 234.8 L194.85 234.95 Q193.7 235.65 189.8 230.85 185.2 225.25 183.7 224.55 179.3 222.7 174.5 223.9 L165.9 226.95" fill="#ffffff" fill-rule="evenodd" stroke="none"/>
      <path d="M182.35 180.55 L181.85 181.25 182.0 181.3 181.75 181.6 182.65 181.75 190.55 181.25 Q194.45 181.1 197.5 184.95 L199.4 188.4 Q200.75 190.9 202.05 191.05 L203.3 190.85 203.3 190.55 203.4 190.5 203.75 203.2 203.7 202.6 Q199.3 204.0 193.1 202.35 L195.3 202.3 194.85 186.25 Q194.85 183.95 192.7 183.95 L190.4 184.05 Q189.2 184.05 188.85 185.1 L188.75 186.15 189.15 201.55 189.1 200.95 Q184.1 198.75 180.85 195.4 L180.9 195.9 180.75 195.75 180.5 186.4 Q180.5 184.7 180.9 183.35 181.3 181.7 182.35 180.55 M149.4 181.85 L149.05 181.9 149.3 182.2 149.05 182.25 149.0 181.9 149.4 181.85 M148.95 182.25 Q149.65 183.2 150.7 183.6 152.3 184.35 154.9 184.1 L159.5 183.5 Q164.95 182.9 166.65 187.35 166.95 188.0 167.0 191.1 167.0 193.85 167.75 194.65 L163.15 207.25 163.4 206.4 Q160.4 205.65 156.75 203.2 L163.05 186.05 149.55 187.7 148.9 182.25 148.95 182.25 M207.1 179.05 L209.75 179.9 Q212.85 180.8 217.9 181.4 222.05 182.25 224.7 185.25 L222.4 185.1 221.1 205.15 Q217.05 205.2 213.2 202.0 L213.2 202.4 213.1 202.35 214.25 184.55 206.75 184.1 207.1 179.05 M235.8 183.05 Q236.45 184.35 238.6 184.65 L242.45 184.95 246.3 185.4 Q248.15 185.85 249.9 187.1 251.25 188.15 252.35 190.2 L254.4 193.45 255.95 194.65 256.0 194.3 256.05 194.3 255.05 201.95 254.75 203.35 Q254.05 206.1 251.5 206.75 253.15 207.25 254.0 208.35 L253.3 207.8 Q249.4 208.1 244.65 205.5 245.9 205.1 246.4 203.5 L246.55 202.7 248.05 191.05 Q248.4 187.95 245.55 187.5 L243.45 187.25 241.35 203.4 Q237.9 200.9 234.0 197.1 L235.8 183.05 M285.35 204.6 L282.95 216.35 Q279.3 217.15 274.95 215.3 L274.9 215.65 274.85 215.65 274.5 217.15 278.7 196.85 Q279.45 193.2 276.55 192.7 L274.8 192.35 Q272.5 191.9 271.75 194.4 L271.6 194.95 268.25 211.2 266.6 209.9 Q263.0 206.9 261.15 204.45 L263.7 192.1 264.05 190.85 Q264.65 188.5 265.9 187.2 L266.05 187.35 265.8 187.55 Q266.25 188.2 267.7 188.25 L270.65 188.15 Q283.0 188.6 283.65 198.5 L283.75 202.05 Q283.95 204.4 285.35 204.6 M293.9 195.6 L294.0 195.65 293.8 195.95 Q294.65 196.5 296.15 196.65 L300.7 196.3 Q303.0 196.1 305.2 197.2 309.75 199.0 310.8 202.5 L311.25 208.8 Q311.6 214.1 312.55 215.15 L309.4 226.15 Q306.25 226.15 301.65 223.9 L301.45 224.55 307.55 203.25 307.65 202.9 Q308.25 200.55 305.9 199.9 L303.55 199.2 Q301.35 198.6 300.55 200.75 L295.0 220.0 Q291.65 217.3 288.4 213.65 L292.85 198.25 292.95 197.9 Q293.3 196.6 293.9 195.6 M84.3 197.05 L88.95 196.5 93.05 195.6 98.9 195.4 Q101.4 196.0 104.2 198.8 105.6 200.2 106.7 202.95 108.0 206.3 108.65 207.3 L108.45 206.45 108.75 206.95 109.85 211.75 Q110.4 214.05 109.8 215.95 L109.35 217.15 109.55 216.65 109.5 216.65 109.65 216.3 100.7 215.3 101.35 214.35 Q101.55 213.4 101.25 212.1 L98.6 200.65 Q97.95 197.6 95.05 198.2 L93.2 198.65 96.75 214.15 94.05 213.0 Q92.0 211.95 86.85 207.55 L87.0 208.1 86.8 207.95 84.3 197.05 M117.5 193.1 L121.95 215.05 119.85 214.8 Q117.7 214.45 115.75 213.2 113.85 211.95 112.7 210.2 L112.85 210.9 112.6 210.55 109.05 193.05 113.3 193.35 Q116.1 193.45 117.6 194.65 L117.5 194.15 117.7 194.3 117.5 193.1 M116.35 228.0 L116.15 228.05 116.05 227.3 116.1 227.7 116.15 227.8 116.35 228.0 M121.45 187.2 Q123.65 188.45 130.0 188.15 135.3 187.5 137.7 188.65 139.35 189.8 140.15 192.25 L141.55 196.2 136.7 211.85 136.8 211.5 Q133.75 210.35 130.45 207.35 L135.7 190.0 122.35 192.35 121.45 187.2 M143.9 188.6 L144.0 188.25 144.0 188.4 143.9 188.6 M121.5 186.6 L121.55 186.85 121.65 186.9 121.55 186.95 121.5 186.6 M138.05 246.0 L137.0 240.85 137.2 240.85 137.1 240.5 Q142.8 239.9 145.65 238.5 147.4 237.65 147.85 236.45 L147.85 235.5 Q147.55 233.85 145.85 233.2 L141.5 233.0 Q138.45 233.5 137.1 235.1 136.6 235.65 136.4 236.35 136.15 237.3 136.4 238.45 L136.25 238.5 136.3 238.8 126.4 240.35 Q125.8 237.65 126.5 235.4 L126.95 234.2 127.0 234.2 126.8 234.55 127.85 234.15 Q134.05 231.05 136.35 230.25 141.1 228.65 145.65 229.35 147.75 229.85 149.7 230.7 152.1 231.75 153.4 233.05 L155.0 235.55 Q155.85 237.0 156.55 236.95 L157.15 235.55 Q156.85 236.7 156.0 237.8 154.7 239.45 152.55 240.5 155.35 240.6 157.3 241.9 159.65 243.4 160.1 246.15 160.45 248.05 159.9 249.75 160.3 248.2 160.0 246.5 159.65 244.25 157.95 242.8 156.35 241.5 153.9 241.05 L152.0 241.45 Q144.7 244.05 137.9 245.15 L138.05 246.0 M127.4 249.3 L127.35 248.95 133.55 248.15 133.55 248.45 133.45 248.45 133.45 248.5 127.4 249.3 M149.8 249.05 L150.15 248.4 149.9 249.1 149.8 249.05 M245.9 230.0 L249.9 229.35 Q255.35 228.75 259.85 231.2 264.45 233.7 266.65 238.65 L267.55 242.75 Q268.15 245.75 269.15 246.65 L269.5 245.0 Q270.8 237.55 267.0 232.7 263.3 227.9 255.5 226.55 248.8 225.4 243.7 228.2 243.75 230.05 245.9 230.0 M245.85 240.7 Q245.2 244.35 246.65 246.95 248.25 249.7 251.65 250.3 254.75 250.85 257.1 248.9 259.05 247.3 259.9 244.55 L260.15 243.3 Q260.75 239.75 259.25 237.15 257.7 234.45 254.45 233.9 250.95 233.35 248.55 235.5 246.85 237.0 246.15 239.45 L245.85 240.7 M236.4 238.8 L236.8 237.0 Q238.4 231.25 243.05 228.25 248.3 224.95 255.6 226.2 263.4 227.55 267.1 232.35 270.9 237.2 269.6 244.65 L269.05 247.15 Q267.85 251.55 264.9 254.4 L267.2 251.4 267.5 250.75 Q261.9 253.35 254.65 250.5 L251.55 250.65 Q246.75 249.85 245.75 245.05 240.5 240.7 237.4 235.4 236.7 237.1 236.4 238.8 M216.8 229.45 Q213.25 229.2 211.1 231.6 209.9 232.95 209.35 234.8 L208.95 237.05 Q208.7 240.8 210.45 243.25 212.3 245.85 215.8 246.05 218.95 246.25 221.05 244.1 222.45 242.7 223.1 240.65 L223.45 238.2 Q223.7 234.6 221.9 232.2 220.05 229.65 216.8 229.45 M211.85 224.3 Q218.95 223.5 223.4 225.85 227.95 228.3 230.5 234.4 231.4 236.6 232.95 236.45 232.65 230.0 228.45 226.2 224.3 222.5 217.1 222.0 209.15 221.55 204.25 225.9 205.4 226.4 208.05 225.5 L211.85 224.3 M223.4 253.05 L225.75 251.8 Q230.3 249.0 232.05 243.65 227.8 245.7 221.15 244.2 218.95 246.65 215.7 246.4 212.8 246.2 211.0 244.35 209.35 242.6 208.95 239.75 L204.15 236.25 200.0 232.65 199.35 235.9 Q199.55 234.15 200.0 232.6 201.25 227.9 204.95 225.0 209.8 221.2 217.2 221.65 225.1 222.2 229.25 226.55 233.55 231.0 233.05 238.55 232.9 240.9 232.3 242.95 231.0 247.6 227.45 250.6 225.6 252.15 223.4 253.05 M172.55 232.4 Q171.9 233.35 171.6 234.5 171.15 236.1 171.3 238.15 171.6 241.9 173.7 244.05 175.9 246.35 179.35 246.05 182.5 245.8 184.3 243.3 185.05 242.25 185.45 240.95 185.9 239.25 185.75 237.15 185.45 233.55 183.35 231.4 181.15 229.2 177.85 229.45 174.3 229.75 172.55 232.4 M162.3 232.6 Q163.2 229.3 165.55 226.85 169.8 222.3 177.2 221.7 185.05 221.05 189.85 224.75 194.7 228.55 195.35 236.1 195.65 239.8 194.75 242.9 194.2 244.8 193.2 246.5 L194.4 243.85 194.3 243.75 Q193.35 243.15 190.25 243.25 L185.75 243.5 184.35 243.4 Q182.55 246.15 179.25 246.4 176.1 246.65 174.0 244.75 172.0 243.0 171.4 239.8 165.0 236.75 162.35 232.4 L162.3 232.6 M165.9 226.95 L174.5 223.9 Q179.3 222.7 183.7 224.55 185.2 225.25 189.8 230.85 193.7 235.65 194.85 234.95 L195.05 234.8 Q193.95 228.05 189.2 224.7 184.5 221.45 177.1 222.05 170.0 222.65 165.8 226.8 L165.9 226.95" fill="#fdfeca" fill-rule="evenodd" stroke="none"/>
      <path d="M180.75 195.75 L180.9 195.9 180.85 195.4 Q184.1 198.75 189.1 200.95 L189.15 201.55 189.15 202.45 193.1 202.35 Q199.3 204.0 203.7 202.6 L203.75 203.2 203.75 203.75 203.8 204.45 204.1 217.1 204.0 217.1 204.0 217.45 195.65 217.7 195.4 208.1 189.3 208.3 189.55 217.5 189.45 217.5 189.45 217.85 181.3 218.05 181.05 208.5 177.25 208.6 177.45 208.25 177.35 208.25 180.0 202.65 180.95 202.6 180.75 195.75 M163.15 207.25 L160.45 214.6 174.15 212.9 174.8 218.25 174.65 218.3 174.7 218.6 155.9 220.9 Q154.2 221.1 153.05 220.25 152.0 219.45 151.8 217.95 151.7 216.95 152.0 216.2 L152.15 215.65 156.75 203.2 Q160.4 205.65 163.4 206.4 L163.15 207.25 M221.1 205.15 L220.25 218.4 220.2 218.4 220.15 218.75 212.1 218.2 213.1 202.35 213.2 202.4 213.2 202.0 Q217.05 205.2 221.1 205.15 M254.0 208.35 Q255.3 209.95 255.0 212.2 L254.15 218.75 Q253.95 220.2 254.3 220.95 L254.4 221.15 255.4 222.4 254.95 222.35 255.3 222.75 247.05 221.65 246.45 221.15 Q245.6 220.2 245.9 218.3 L246.5 213.45 Q246.65 212.5 245.95 212.05 245.5 211.75 244.25 211.6 L240.35 211.1 239.15 220.25 239.1 220.25 239.05 220.6 231.05 219.55 232.25 210.1 228.05 209.55 228.3 209.25 228.15 209.2 231.65 204.05 233.05 204.25 233.9 197.45 233.95 197.5 234.0 197.1 Q237.9 200.9 241.35 203.4 L241.1 205.3 243.3 205.6 244.65 205.5 Q249.4 208.1 253.3 207.8 L254.0 208.35 M282.95 216.35 L282.1 220.35 281.95 221.15 281.8 221.55 Q280.1 227.85 273.85 226.6 L263.9 224.5 Q260.85 223.9 259.45 221.6 L259.2 221.15 Q258.15 219.0 258.75 216.05 L261.05 204.8 261.1 204.85 261.15 204.45 Q263.0 206.9 266.6 209.9 L268.25 211.2 267.35 215.55 Q266.9 217.5 267.2 218.3 267.65 219.45 269.45 219.85 L271.0 220.1 Q272.8 220.5 273.55 219.6 L274.3 218.2 274.5 217.15 274.85 215.65 274.9 215.65 274.95 215.3 Q279.3 217.15 282.95 216.35 M288.4 213.65 Q291.65 217.3 295.0 220.0 L291.85 231.0 284.05 228.75 288.4 213.65 M301.45 224.55 L301.65 223.9 Q306.25 226.15 309.4 226.15 L306.75 235.35 299.0 233.1 301.45 224.65 301.45 224.55 M86.8 207.95 L87.0 208.1 86.85 207.55 Q92.0 211.95 94.05 213.0 L96.75 214.15 97.25 216.45 99.35 215.95 100.35 215.55 100.65 215.3 100.7 215.3 109.65 216.3 109.5 216.65 109.55 216.65 109.35 217.15 109.15 217.55 109.1 217.65 109.0 217.75 Q107.45 220.1 103.95 220.9 L98.6 222.15 100.65 231.15 100.5 231.2 100.55 231.5 92.6 233.35 90.5 224.0 86.35 224.95 87.8 218.95 87.85 218.95 87.9 218.6 89.2 218.3 86.75 207.9 86.8 207.95 M121.95 215.05 L124.2 226.1 124.05 226.15 124.1 226.45 116.35 228.0 116.15 227.8 116.1 227.7 116.05 227.3 115.95 226.9 112.6 210.55 112.85 210.9 112.7 210.2 Q113.85 211.95 115.75 213.2 117.7 214.45 119.85 214.8 L121.95 215.05 M136.7 211.85 L134.6 218.65 148.25 216.25 149.15 221.55 149.0 221.6 149.05 221.9 130.45 225.15 Q128.75 225.5 127.55 224.65 126.45 223.9 126.2 222.45 126.05 221.8 126.2 221.15 L126.35 220.55 126.45 220.1 130.4 207.3 130.45 207.35 Q133.75 210.35 136.8 211.5 L136.7 211.85 M159.9 249.75 Q159.2 252.4 156.5 254.5 152.65 257.5 145.65 258.7 137.75 260.1 132.9 257.75 127.8 255.35 127.25 249.3 L127.4 249.3 133.45 248.5 Q133.35 249.6 133.95 250.6 135.25 252.95 139.85 253.4 143.75 253.75 146.75 252.75 149.95 251.75 150.55 250.9 L150.7 250.5 Q151.1 249.8 149.9 249.1 L150.15 248.4 150.15 247.45 Q149.7 245.15 146.1 244.95 L144.35 245.0 140.05 245.6 138.4 245.95 138.0 245.6 138.05 246.0 137.9 245.15 Q144.7 244.05 152.0 241.45 L153.9 241.05 Q156.35 241.5 157.95 242.8 159.65 244.25 160.0 246.5 160.3 248.2 159.9 249.75 M138.15 245.65 L138.5 245.6 138.1 245.25 138.15 245.65 M264.9 254.4 L261.5 256.85 260.15 257.5 259.55 257.75 258.25 258.15 Q254.55 259.15 250.05 258.35 242.9 257.15 239.0 251.95 235.0 246.65 236.25 239.45 L236.4 238.8 Q236.7 237.1 237.4 235.4 240.5 240.7 245.75 245.05 246.75 249.85 251.55 250.65 L254.65 250.5 Q261.9 253.35 267.5 250.75 L267.2 251.4 264.9 254.4 M199.35 235.9 L200.0 232.65 204.15 236.25 208.95 239.75 Q209.35 242.6 211.0 244.35 212.8 246.2 215.7 246.4 218.95 246.65 221.15 244.2 227.8 245.7 232.05 243.65 230.3 249.0 225.75 251.8 L223.4 253.05 215.0 254.2 Q207.8 253.75 203.35 249.0 198.75 244.1 199.25 236.85 L199.35 235.9 M193.2 246.5 L191.5 248.8 190.9 249.5 189.5 250.7 189.0 251.05 188.75 251.25 Q185.0 253.75 179.7 254.2 172.5 254.8 167.4 250.75 162.2 246.6 161.6 239.35 161.3 235.75 162.2 232.85 L162.3 232.6 162.35 232.4 Q165.0 236.75 171.4 239.8 172.0 243.0 174.0 244.75 176.1 246.65 179.25 246.4 182.55 246.15 184.35 243.4 L185.75 243.5 190.25 243.25 Q193.35 243.15 194.3 243.75 L194.4 243.85 193.2 246.5" fill="#fdeba0" fill-rule="evenodd" stroke="none"/>
    </g>
  </defs>
</svg>
